<svg width="510" height="464" viewBox="0 0 510 464" fill="none" xmlns="http://www.w3.org/2000/svg">
<path d="M99.6246 87.3845C120.361 87.3845 137.171 70.5743 137.171 49.8379C137.171 29.1014 120.361 12.2912 99.6246 12.2912C78.8882 12.2912 62.078 29.1014 62.078 49.8379C62.078 70.5743 78.8882 87.3845 99.6246 87.3845Z" fill="#EBEBEB"/>
<path d="M126.673 76.006C140.666 62.0137 140.666 39.3277 126.673 25.3354C112.681 11.343 89.995 11.343 76.0027 25.3354C62.0104 39.3277 62.0104 62.0137 76.0027 76.006C89.995 89.9983 112.681 89.9984 126.673 76.006Z" fill="#DBDBDB"/>
<path d="M113.956 81.7769C131.133 74.8091 139.409 55.2359 132.441 38.059C125.474 20.8821 105.9 12.606 88.7235 19.5738C71.5466 26.5417 63.2705 46.1148 70.2383 63.2917C77.2062 80.4686 96.7793 88.7447 113.956 81.7769Z" fill="white"/>
<path d="M101.777 19.5487H100.918V24.6312H101.777V19.5487Z" fill="#EBEBEB"/>
<path d="M86.1432 23.5108L85.3997 23.9399L87.9402 28.3419L88.6837 27.9128L86.1432 23.5108Z" fill="#EBEBEB"/>
<path d="M74.5889 34.7275L74.1598 35.4711L78.5618 38.0116L78.991 37.268L74.5889 34.7275Z" fill="#EBEBEB"/>
<path d="M75.2994 50.25H70.2169V51.1085H75.2994V50.25Z" fill="#EBEBEB"/>
<path d="M78.9766 63.8336L74.5548 66.3749L74.9841 67.1218L79.4059 64.5805L78.9766 63.8336Z" fill="#EBEBEB"/>
<path d="M87.947 73.0215L85.4081 77.4244L86.1518 77.8533L88.6908 73.4504L87.947 73.0215Z" fill="#EBEBEB"/>
<path d="M101.777 76.7158H100.918V81.7983H101.777V76.7158Z" fill="#EBEBEB"/>
<path d="M114.735 73.0404L113.991 73.4697L116.533 77.8713L117.276 77.442L114.735 73.0404Z" fill="#EBEBEB"/>
<path d="M124.114 63.3277L123.685 64.0712L128.087 66.6125L128.516 65.869L124.114 63.3277Z" fill="#EBEBEB"/>
<path d="M132.478 50.25H127.384V51.1085H132.478V50.25Z" fill="#EBEBEB"/>
<path d="M128.693 35.1311L124.271 37.6724L124.701 38.4193L129.122 35.8781L128.693 35.1311Z" fill="#EBEBEB"/>
<path d="M116.538 23.5165L113.999 27.9194L114.743 28.3483L117.282 23.9453L116.538 23.5165Z" fill="#EBEBEB"/>
<path d="M106.322 39.9116L91.5984 68.8578L92.3636 69.2471L107.087 40.3008L106.322 39.9116Z" fill="#EBEBEB"/>
<path d="M99.6283 39.1369L98.5059 39.3616L104.784 70.7227L105.906 70.498L99.6283 39.1369Z" fill="#DBDBDB"/>
<path d="M504.247 38.8829H341.549V346.72H504.247V38.8829Z" fill="#EBEBEB"/>
<path d="M490.316 54.1992H355.48V249.648H490.316V54.1992Z" fill="white"/>
<path d="M364.088 377.696H353.339V346.72H372.468L364.088 377.696Z" fill="#EBEBEB"/>
<path d="M372.468 346.72L369.377 358.133H353.328V346.72H372.468Z" fill="#C7C7C7"/>
<path d="M481.696 377.696H492.445V346.72H473.317L481.696 377.696Z" fill="#EBEBEB"/>
<path d="M473.317 346.72L476.408 358.133H492.457V346.72H473.317Z" fill="#C7C7C7"/>
<path d="M490.316 263.602C480.208 263.808 470.112 263.922 460.015 264.003C449.919 264.083 439.811 264.094 429.715 264.151L430.264 263.602C430.264 268.673 430.264 273.756 430.264 278.838V294.074C430.15 304.239 430.047 314.393 429.795 324.558C429.532 314.393 429.429 304.239 429.314 294.074L429.257 278.838C429.257 273.756 429.257 268.673 429.257 263.602V263.041H429.806C439.903 263.098 449.999 263.041 460.107 263.19C470.215 263.339 480.208 263.384 490.316 263.602Z" fill="#C7C7C7"/>
<path d="M429.715 333.292C439.811 333.075 449.907 332.96 460.015 332.88C470.123 332.8 480.208 332.789 490.316 332.731L489.744 333.292C489.744 328.301 489.744 323.322 489.744 318.342L489.812 303.392C489.915 293.422 490.018 283.463 490.282 273.492C490.533 283.463 490.636 293.422 490.739 303.392L490.808 318.342C490.808 323.322 490.865 328.301 490.808 333.292V333.842H490.259C480.151 333.784 470.054 333.842 459.958 333.704C449.862 333.567 439.811 333.464 429.715 333.292Z" fill="#C7C7C7"/>
<path d="M436.491 306.151H441.082V288.568H436.491V306.151Z" fill="#C7C7C7"/>
<path d="M355.48 263.602C365.576 263.384 375.673 263.27 385.781 263.19C395.888 263.11 405.973 263.098 416.081 263.041H416.619V263.602C416.619 268.673 416.619 273.756 416.619 278.838L416.55 294.074C416.447 304.239 416.344 314.393 416.081 324.558C415.818 314.393 415.715 304.239 415.6 294.074L415.543 278.838C415.543 273.756 415.543 268.673 415.543 263.602L416.093 264.151C405.985 264.094 395.888 264.151 385.792 264.003C375.696 263.854 365.576 263.808 355.48 263.602Z" fill="#C7C7C7"/>
<path d="M416.081 333.292C405.973 333.498 395.877 333.613 385.781 333.704C375.684 333.796 365.576 333.784 355.48 333.842H354.931V333.292C354.931 328.301 354.931 323.322 354.931 318.342L354.999 303.392C355.102 293.422 355.205 283.463 355.469 273.492C355.72 283.463 355.823 293.422 355.926 303.392L355.995 318.342C355.995 323.322 356.052 328.301 355.995 333.292L355.446 332.731C365.542 332.731 375.638 332.731 385.746 332.88C395.854 333.029 405.973 333.04 416.081 333.292Z" fill="#C7C7C7"/>
<path d="M409.293 288.557H404.703V306.14H409.293V288.557Z" fill="#C7C7C7"/>
<path d="M490.316 116.621H355.48V118.715H490.316V116.621Z" fill="#C7C7C7"/>
<path d="M490.316 159.044H355.48V161.139H490.316V159.044Z" fill="#C7C7C7"/>
<path d="M490.316 201.467H355.48V203.562H490.316V201.467Z" fill="#C7C7C7"/>
<path d="M424.449 54.1992H421.347V249.648H424.449V54.1992Z" fill="#EBEBEB"/>
<path d="M176.011 260.145L178.747 276.572L197.303 376.78H200.291L186.806 276.572L184.803 260.145H176.011Z" fill="#EBEBEB"/>
<path d="M184.803 260.145H176.011L178.747 276.572H186.806L184.803 260.145Z" fill="#C7C7C7"/>
<path d="M117.745 376.78H120.733L139.289 276.572L142.025 260.145H133.233L131.23 276.572L117.745 376.78Z" fill="#EBEBEB"/>
<path d="M133.233 260.145L131.23 276.572H139.289L142.025 260.145H133.233Z" fill="#C7C7C7"/>
<path d="M62.0895 376.78H65.0772L83.633 276.572L86.3689 260.145H77.5775L75.5742 276.572L62.0895 376.78Z" fill="#EBEBEB"/>
<path d="M75.5742 276.572H83.633L86.3689 260.145H77.5775L75.5742 276.572Z" fill="#C7C7C7"/>
<path d="M66.8286 267.872H202.798V256.837L151.892 253.54L134.79 154.877H72.0142L66.8286 267.872Z" fill="#EBEBEB"/>
<path d="M66.8286 267.872H74.2464L79.0771 154.877H72.0142L66.8286 267.872Z" fill="#C7C7C7"/>
<path d="M261.945 463.629C347.508 463.629 416.871 452.001 416.871 437.656C416.871 423.311 347.508 411.682 261.945 411.682C176.382 411.682 107.02 423.311 107.02 437.656C107.02 452.001 176.382 463.629 261.945 463.629Z" fill="#EBEBEB"/>
<path d="M77.4974 448.611C109.045 448.611 134.619 443.214 134.619 436.557C134.619 429.9 109.045 424.503 77.4974 424.503C45.9502 424.503 20.3761 429.9 20.3761 436.557C20.3761 443.214 45.9502 448.611 77.4974 448.611Z" fill="#EBEBEB"/>
<path d="M434.11 448.611C465.658 448.611 491.232 443.214 491.232 436.557C491.232 429.9 465.658 424.503 434.11 424.503C402.563 424.503 376.989 429.9 376.989 436.557C376.989 443.214 402.563 448.611 434.11 448.611Z" fill="#EBEBEB"/>
<path d="M14 377.696L75.9863 377.421L137.973 377.318L261.945 377.135L385.918 377.318L447.904 377.421L509.891 377.696L447.904 377.982L385.918 378.085L261.945 378.268L137.973 378.085L75.9863 377.982L14 377.696Z" fill="#263238"/>
<path d="M289.006 216.05H201.115V377.524H289.006V216.05Z" fill="#455A64"/>
<path d="M289.006 216.05H201.115V226.582H289.006V216.05Z" fill="#263238"/>
<path d="M326.748 207.568H23.4897V216.062H326.748V207.568Z" fill="#455A64"/>
<path d="M42.2402 216.062L41.954 226.582L38.2566 377.535H31.5371V216.062H42.2402Z" fill="#455A64"/>
<path d="M31.5371 216.062H42.2402L41.954 226.582H31.5371V216.062Z" fill="#263238"/>
<path d="M318.792 216.05H289.006V377.524H318.792V216.05Z" fill="#37474F"/>
<path d="M318.792 216.05H289.006V226.582H318.792V216.05Z" fill="#263238"/>
<path d="M367.259 64.6161C360.003 74.3188 350.747 82.349 340.118 88.1629C329.498 82.3448 320.25 74.315 313 64.6161C303.453 52.0242 303.922 32.1863 317.578 27.9051C332.734 23.1774 340.152 45.9687 340.152 45.9687C340.152 45.9687 347.696 23.0744 362.703 27.9623C376.325 32.3351 376.84 51.9785 367.259 64.6161Z" fill="#DBEFFA"/>
<path d="M329.495 78.1695L325.385 61.0217L322.695 67.0658H306.051V65.1312H321.436L325.923 55.0234L329.14 68.3937L333.685 40.6916L337.691 62.6014L340.862 53.4551L345.853 68.428L346.963 65.1198H374.288V67.0543H348.348L345.853 74.5408L340.828 59.4649L337.107 70.2023L333.788 52.0242L329.495 78.1695Z" fill="white"/>
<path d="M453.239 356.095V373.632H446.233V363.65H421.954V373.632H414.948V356.095H453.239Z" fill="#DBEFFA"/>
<path opacity="0.1" d="M421.954 365.917H414.948V373.632H421.954V365.917Z" fill="black"/>
<path opacity="0.1" d="M453.239 365.917H446.233V373.632H453.239V365.917Z" fill="black"/>
<path d="M486.023 434.725H382.186L387.91 369.774H480.3L486.023 434.725Z" fill="#DBEFFA"/>
<path opacity="0.1" d="M434.11 434.725H382.186L387.91 369.774H434.11V434.725Z" fill="black"/>
<path d="M450.091 398.472V406.027H437.888V418.23H430.333V406.027H418.13V398.472H430.333V386.27H437.888V398.472H450.091Z" fill="#FFFFFD"/>
<path d="M259.441 369.912C259.441 369.912 252.744 419.192 252.744 419.227C252.618 428.659 252.344 436.924 251.806 441.182C251.811 441.205 251.811 441.228 251.806 441.251C251.796 442.261 251.545 443.254 251.073 444.147L251.016 444.216C248.188 446.07 172.832 447.306 170.187 446.505C167.543 445.704 169.741 438.069 172.626 435.688C175.51 433.307 204.162 419.925 204.162 419.925L211.328 370.702L259.441 369.912Z" fill="#AD6359"/>
<path d="M252.641 425.339C252.492 432.208 252.229 437.931 251.806 441.228C251.811 441.251 251.811 441.274 251.806 441.297C251.796 442.307 251.545 443.3 251.073 444.193C251.073 444.193 251.073 444.193 251.073 444.25C248.234 446.116 172.877 447.341 170.233 446.539C167.589 445.738 169.787 438.103 172.671 435.722C174.056 434.577 181.337 430.937 188.549 427.434C186.259 429.231 183.97 431.441 185.011 432.334C186.809 433.822 232.506 432.208 252.641 425.339Z" fill="#263238"/>
<path d="M192.738 425.339C192.738 425.339 206.074 419.272 228.946 430.25L192.738 425.339Z" fill="#263238"/>
<path d="M270.705 403.876L205.032 402.823L238.08 156.411H282.598L270.705 403.876Z" fill="#263238"/>
<path d="M282.598 156.411L274.162 331.942L252.023 156.411H282.598Z" fill="#37474F"/>
<path d="M267.545 392.463C265.565 392.246 263.539 392.257 261.547 392.177C259.555 392.097 257.724 392.074 255.824 392.04C251.863 391.971 247.914 391.902 243.953 391.856C236.134 391.788 228.316 391.731 220.498 391.753C216.056 391.753 211.638 391.902 207.196 392.097C207.173 392.104 207.153 392.119 207.139 392.138C207.125 392.158 207.117 392.181 207.117 392.206C207.117 392.23 207.125 392.253 207.139 392.273C207.153 392.292 207.173 392.307 207.196 392.314C215.06 392.784 222.913 392.91 230.789 393.013C238.664 393.116 246.425 393.139 254.244 393.127C256.442 393.127 258.628 393.127 260.826 393.127C263.024 393.127 265.336 393.127 267.545 392.921C267.606 392.921 267.664 392.897 267.707 392.854C267.75 392.811 267.774 392.753 267.774 392.692C267.774 392.631 267.75 392.573 267.707 392.53C267.664 392.487 267.606 392.463 267.545 392.463Z" fill="#455A64"/>
<path d="M246.483 169.255C242.613 197.243 239.031 225.255 235.23 253.254C231.43 281.254 227.423 308.968 223.371 336.819C221.081 352.444 218.712 368.046 216.617 383.752C216.617 383.992 216.949 384.084 216.995 383.843C222.112 356.061 226.152 328.073 230.216 300.119C234.28 272.165 238 244.394 241.446 216.475C243.38 200.792 245.258 185.098 246.849 169.381C246.872 169.095 246.517 169.049 246.483 169.255Z" fill="#455A64"/>
<path d="M282.656 370.633C282.656 370.633 288.974 417.624 288.974 417.658C289.032 427.079 289.249 435.344 289.764 439.614C289.76 439.637 289.76 439.66 289.764 439.683C289.78 440.693 290.023 441.686 290.474 442.59C290.474 442.59 290.474 442.59 290.531 442.647C293.347 444.525 360.634 446.242 363.289 445.418C365.945 444.593 363.793 436.981 360.92 434.577C358.047 432.173 337.545 418.62 337.545 418.62L329.635 369.397L282.656 370.633Z" fill="#AD6359"/>
<path d="M363.301 445.418C360.656 446.242 293.37 444.525 290.543 442.647C290.543 442.647 290.543 442.647 290.543 442.579C290.076 441.68 289.828 440.684 289.822 439.671C289.816 439.649 289.816 439.625 289.822 439.603C289.274 434.662 289.037 429.692 289.112 424.721C300.101 431.693 328.559 434.795 337.602 432.814C345.615 431.052 343.852 424.595 342.181 421.688C348.385 425.82 358.974 432.929 361 434.612C363.804 436.97 365.956 444.594 363.301 445.418Z" fill="#263238"/>
<path d="M342.112 421.653C342.112 421.653 319.47 417.967 303.982 430.204L342.112 421.653Z" fill="#263238"/>
<path d="M242.602 156.331C242.797 157.247 245.91 171.693 249.138 184.102C251.485 193.168 253.9 201.135 255.285 201.96C256.854 202.887 264.5 206.275 267.065 207.34L277.047 403.418L344.997 401.896L309.511 188.109L303.535 156.331H242.602Z" fill="#263238"/>
<path d="M251.233 200.014C256.689 202 261.963 204.455 266.996 207.351C267.034 207.374 267.063 207.411 267.077 207.453C267.09 207.496 267.087 207.542 267.069 207.583C267.051 207.624 267.018 207.657 266.977 207.676C266.936 207.694 266.89 207.697 266.847 207.683C261.536 205.394 256.121 203.219 250.947 200.643C250.864 200.605 250.799 200.536 250.766 200.45C250.734 200.364 250.737 200.269 250.775 200.185C250.813 200.102 250.883 200.037 250.969 200.005C251.055 199.972 251.15 199.976 251.233 200.014Z" fill="#455A64"/>
<path d="M249.631 163.646C249.631 163.463 249.963 163.417 249.963 163.646C249.963 169.953 250.329 175.505 250.855 181.389C251.107 184.125 253.305 199.247 258.044 198.148C258.846 197.953 259.189 197.175 259.372 195.984C259.355 194.419 259.143 192.862 258.742 191.348C258.216 188.177 257.792 185.006 257.518 181.813C256.97 175.858 257.035 169.862 257.712 163.921C257.722 163.887 257.742 163.857 257.77 163.836C257.798 163.815 257.832 163.803 257.867 163.803C257.902 163.803 257.936 163.815 257.964 163.836C257.992 163.857 258.012 163.887 258.021 163.921C257.877 172.172 258.359 180.423 259.464 188.601C260.059 192.539 262.039 198.457 257.93 199.064C253.82 199.67 251.061 189.768 250.512 187.055C249.211 179.323 248.915 171.455 249.631 163.646Z" fill="#455A64"/>
<path d="M257.918 198.514C258.346 199.533 258.702 200.581 258.983 201.651C259.289 202.474 259.44 203.348 259.429 204.226C259.423 204.262 259.405 204.295 259.38 204.321C259.355 204.347 259.322 204.365 259.286 204.372C259.251 204.379 259.214 204.376 259.18 204.362C259.146 204.348 259.118 204.325 259.097 204.295C258.593 203.521 258.207 202.676 257.953 201.788C257.598 200.815 257.209 199.853 256.877 198.88C256.828 198.742 256.836 198.59 256.9 198.458C256.963 198.326 257.076 198.225 257.214 198.176C257.352 198.128 257.504 198.136 257.636 198.199C257.768 198.263 257.87 198.376 257.918 198.514Z" fill="#455A64"/>
<path d="M341.151 392.532C339.17 392.372 337.133 392.429 335.141 392.406C333.149 392.383 331.329 392.406 329.417 392.406C325.468 392.406 321.507 392.497 317.558 392.566C309.74 392.715 301.921 392.887 294.103 393.127C289.661 393.264 285.243 393.528 280.824 393.848C280.801 393.856 280.781 393.87 280.767 393.89C280.753 393.909 280.745 393.933 280.745 393.957C280.745 393.981 280.753 394.005 280.767 394.024C280.781 394.044 280.801 394.058 280.824 394.066C288.7 394.318 296.552 394.215 304.428 394.066C312.304 393.917 320.065 393.745 327.872 393.516L334.454 393.287C336.675 393.196 338.964 393.161 341.162 392.887C341.192 392.867 341.217 392.841 341.234 392.809C341.251 392.777 341.259 392.742 341.258 392.706C341.257 392.67 341.246 392.635 341.227 392.605C341.208 392.574 341.182 392.549 341.151 392.532Z" fill="#455A64"/>
<path d="M311.388 366.146C310.804 360.159 310.163 354.172 309.545 348.186C308.309 336.326 307.034 324.475 305.722 312.631C303.119 288.935 300.448 265.24 297.709 241.544C296.186 228.254 294.927 214.918 293.198 201.651C293.198 201.536 292.992 201.536 293.004 201.651C294.034 213.647 295.499 225.598 296.713 237.572C297.926 249.545 299.094 261.279 300.33 273.127C302.787 296.837 305.313 320.537 307.908 344.225C308.641 350.876 309.373 357.526 310.197 364.177C311.022 370.828 311.903 377.467 312.739 384.118C312.739 384.278 313.013 384.278 312.991 384.118C312.418 378.12 311.972 372.133 311.388 366.146Z" fill="#455A64"/>
<path d="M237.554 183.438L249.15 184.182L282.953 186.38L309.534 188.109L303.535 156.331H242.602H238.023L237.554 183.438Z" fill="#263238"/>
<path d="M253.786 32.4045C242.682 41.9171 245.773 55.8025 241.137 63.3118C238.298 67.8907 229.072 72.7786 227.229 78.0786C224.218 86.8013 231.601 89.9264 229.953 94.6656C227.664 101.374 218.632 100.858 217.006 111.836C215.381 122.814 227.469 134.49 256.144 137.661C284.819 140.832 300.559 130.323 301.589 121.005C302.619 111.687 293.084 108.597 292.431 101.637C292.019 97.1954 297.903 94.0932 298.155 85.9199C298.407 77.7467 290.485 75.0795 289.341 68.131C288.196 61.1826 291.882 44.2981 281.671 35.6784C271.46 27.0587 259.258 27.7112 253.786 32.4045Z" fill="#263238"/>
<path d="M255.068 32.7021C251.963 34.8994 249.435 37.813 247.696 41.1959C245.899 44.7834 244.524 48.5672 243.598 52.4713C243.12 54.7968 242.374 57.0592 241.377 59.2137C240.387 61.0126 239.084 62.6211 237.531 63.9643C234.429 66.7688 230.72 68.9095 227.938 72.0574C225.157 75.2054 223.245 79.0402 224.298 83.1039C224.87 85.3132 226.336 87.1219 227.24 89.1824C228.144 91.2428 228.385 93.5781 226.771 95.2036C225.328 96.5887 223.256 97.2297 221.631 98.363C220.024 99.4821 218.609 100.855 217.441 102.427C216.26 103.98 215.415 105.763 214.96 107.66C214.504 109.558 214.449 111.53 214.797 113.45C216.491 122.368 224.859 127.439 232.586 130.621C233.662 131.067 234.738 131.502 235.825 131.926C235.997 131.995 236.134 131.754 235.963 131.686C228.213 128.251 219.215 124.142 216.239 115.465C215.55 113.573 215.307 111.547 215.529 109.546C215.751 107.544 216.433 105.621 217.521 103.926C218.618 102.257 220.006 100.8 221.619 99.6222C223.176 98.4775 224.985 97.7563 226.565 96.6688C227.352 96.1691 227.993 95.4691 228.422 94.6405C228.85 93.8118 229.051 92.8842 229.003 91.9526C228.759 89.9023 228.029 87.94 226.874 86.229C225.669 84.4617 225.03 82.3696 225.042 80.2307C225.275 78.1512 226.066 76.1735 227.332 74.5071C229.747 71.073 233.318 68.8522 236.489 66.2652C239.772 63.8608 242.214 60.4848 243.472 56.6152C244.067 54.5662 244.434 52.4599 244.949 50.3994C245.411 48.4615 245.98 46.5506 246.654 44.6758C247.921 40.9407 249.992 37.5293 252.721 34.6825C253.438 33.9542 254.228 33.302 255.079 32.7365C255.297 32.7021 255.16 32.5877 255.068 32.7021Z" fill="#263238"/>
<path d="M302.86 114.183C302.51 112.667 301.835 111.245 300.879 110.016C299.884 108.757 298.682 107.727 297.571 106.582C296.442 105.533 295.63 104.188 295.225 102.701C295.023 100.884 295.473 99.0548 296.495 97.5388C297.465 95.9368 298.322 94.2691 299.059 92.5478C300.029 89.9212 300.371 87.1043 300.059 84.3219C299.747 81.5395 298.789 78.8685 297.262 76.5218C296.289 74.9192 295.19 73.3967 294.194 71.8056C293.104 70.0721 292.25 68.2012 291.653 66.2423C290.36 61.9267 290.085 57.3707 289.032 52.9979C287.919 48.5179 286.358 44.1613 284.373 39.994C284.373 39.8909 284.167 39.994 284.224 40.0855C285.987 43.8469 287.349 47.7836 288.288 51.8303C289.203 55.6651 289.558 59.58 290.234 63.4492C290.533 65.3546 291.02 67.2258 291.687 69.0354C292.368 70.7061 293.2 72.3115 294.171 73.8317C296.117 76.9911 298.109 80.1048 298.647 83.8594C299.182 87.5397 298.537 91.2947 296.804 94.5854C295.293 97.4357 293.187 100.584 294.515 103.915C295.66 106.742 298.315 108.494 300.113 110.783C301.054 112.073 301.714 113.548 302.047 115.11C302.38 116.672 302.38 118.287 302.047 119.849C300.502 127.862 292.466 131.857 284.934 132.258C284.885 132.258 284.838 132.277 284.804 132.312C284.77 132.346 284.75 132.393 284.75 132.441C284.75 132.49 284.77 132.536 284.804 132.571C284.838 132.605 284.885 132.624 284.934 132.624C291.481 132.544 298.613 129.671 301.681 123.535C303.151 120.65 303.568 117.343 302.86 114.183Z" fill="#263238"/>
<path d="M260.208 89.5715C258.17 97.9051 233.959 176.02 229.163 177.108C215.049 180.29 198.084 182.625 198.336 171.041C198.737 152.863 232.906 105.014 249.276 89.1137C260.047 78.6395 262.222 81.341 260.208 89.5715Z" fill="#AD6359"/>
<path d="M260.208 89.5715C258.17 97.9051 233.959 176.02 229.163 177.108C215.049 180.29 198.084 182.625 198.336 171.041C198.737 152.863 232.906 105.014 249.276 89.1137C260.047 78.6395 262.222 81.341 260.208 89.5715Z" fill="#AD6359"/>
<path d="M198.244 175.208C192.383 154.603 241.915 94.0359 251.554 86.3206C261.192 78.6052 262.44 81.0205 260.482 90.7621C258.525 100.504 235.104 174.246 230.113 176.936C225.122 179.626 200.9 184.549 198.244 175.208Z" fill="#EBEBEB"/>
<path d="M238.721 136.31L233.284 173.72C233.284 173.72 294.252 174.624 309.385 173.559C309.385 173.559 297.045 103.617 280.767 85.9542C272.628 77.117 263.07 77.7695 256.98 83.951C255.446 85.5193 237.05 109.822 235.116 119.105C233.421 127.29 238.721 136.31 238.721 136.31Z" fill="#DBEFFA"/>
<path d="M274.024 80.7802C274.024 80.7802 266.927 275.794 270.693 285.055C274.459 294.315 331.134 303.507 331.134 303.507C331.134 303.507 314.502 163.921 299.414 121.555C285.426 82.2683 274.024 80.7802 274.024 80.7802Z" fill="#EBEBEB"/>
<path d="M311.892 200.678C306.746 201.388 301.563 201.793 296.369 201.891C289.112 201.891 281.912 201.181 279.828 201.158C279.645 201.158 279.553 201.765 279.679 201.777C285.178 202.439 290.706 202.821 296.243 202.921C301.312 202.885 306.368 202.407 311.354 201.49C311.354 203.024 311.354 204.226 311.354 205.772C306.237 206.756 296.369 208.462 280.446 206.413C280.389 205.772 280.446 202.349 280.343 201.41C280.343 201.273 279.725 201.239 279.702 201.41C279.576 202.337 279.199 210.568 279.187 212.239C279.187 216.36 279.439 227.991 280.458 230.246C282.747 235.351 292.718 235.362 295.476 235.385C298.235 235.408 307.095 235.683 310.415 232.432C312.189 230.703 312.567 221.271 312.304 212.972C312.132 208.988 312.121 200.758 311.892 200.678ZM296.209 234.424C287.418 234.424 283.617 232.592 282.244 230.749C280.664 228.62 280.526 224.888 280.412 220.779C280.32 217.551 280.412 207.443 280.412 207.237C285.529 208.267 299.048 209.675 311.319 206.825C311.319 211.61 311.319 215.444 311.319 220.241C311.319 223.675 311.102 229.536 309.339 231.562C307.954 233.256 302.562 234.412 296.209 234.424Z" fill="#A6A6A6"/>
<path d="M236.65 285.913C233.513 293.331 214.763 298.368 214.763 298.368L238.389 135.635C235.399 130.736 234.232 124.94 235.093 119.265C236.684 110.108 255.789 83.6534 258.88 82.2912C255.69 95.9525 253.475 109.823 252.252 123.799C246.952 181 240.084 277.82 236.65 285.913Z" fill="#EBEBEB"/>
<path d="M241.114 106.903C242.819 104.19 244.548 101.499 246.242 98.7751C246.242 98.6949 246.162 98.6034 246.105 98.6835C244.399 100.973 242.739 103.182 241.091 105.46C241.64 104.247 242.167 103.022 242.659 101.774C242.659 101.637 242.522 101.511 242.453 101.66C241.698 103.262 241.011 104.888 240.335 106.525C238.862 108.562 237.56 110.717 236.443 112.97C233.991 117.641 233.257 123.026 234.371 128.183C234.721 129.621 235.231 131.015 235.894 132.338C236.352 133.242 237.817 135.2 237.806 135.257C236.856 140.591 236.134 145.983 235.379 151.352C234.623 156.721 233.845 162.204 233.215 167.653C232.86 170.743 232.632 173.845 232.174 176.913C232.174 177.028 232.334 177.074 232.357 176.913C232.746 174.235 233.318 171.59 233.799 168.9C234.28 166.21 234.726 163.566 235.15 160.887C236.02 155.484 236.798 150.07 237.577 144.655C238.023 141.587 238.504 138.531 238.847 135.498C238.345 134.335 237.76 133.21 237.096 132.132C236.545 130.999 236.097 129.819 235.757 128.606C235.053 126.15 234.835 123.58 235.116 121.04C235.711 115.866 238.389 111.252 241.114 106.903Z" fill="#263238"/>
<path d="M258.731 82.8864C256.938 85.6108 255.114 88.3086 253.259 90.9796C251.393 93.6467 249.573 96.3483 247.673 98.9926V98.363L252.252 103.159L252.63 103.549L252.229 103.938C250.306 105.804 248.348 107.624 246.402 109.467L246.563 108.986C247.272 113.943 248.028 118.899 248.658 123.867C249.287 128.835 249.963 133.815 250.512 138.749C249.562 133.826 248.703 128.893 247.879 123.947C247.055 119.002 246.277 114.057 245.487 109.066V108.791L245.693 108.597C247.627 106.742 249.55 104.876 251.508 103.056V103.835L246.906 99.0956L246.62 98.7865L246.86 98.4545C248.783 95.8331 250.787 93.2575 252.733 90.659C254.679 88.0605 256.705 85.4391 258.731 82.8864Z" fill="#A6A6A6"/>
<path d="M279.199 94.5969C284.407 101.465 307.897 128.744 309.385 131.148C310.392 132.762 304.726 140.374 304.806 141.45C305.309 145.914 314.502 174.567 318.302 171.442C323.304 167.343 346.336 138.783 342.993 126.489C339.651 114.194 287.212 84.6607 279.153 82.2683C271.094 79.8758 274.047 87.8774 279.199 94.5969Z" fill="#AD6359"/>
<path d="M308.778 131.525C308.778 129.785 281.305 100.538 276.257 90.7621C271.208 80.9862 273.773 78.9028 286.662 85.1758C299.552 91.4489 339.124 114.423 343.818 125.848C348.511 137.272 322.755 168.671 322.755 168.671L304.737 138.348C304.737 138.348 308.755 132.956 308.778 131.525Z" fill="#EBEBEB"/>
<path d="M326.269 159.926C320.053 148.376 311.777 137.18 310.472 135.131C310.404 135.028 310.255 135.131 310.323 135.234C311.709 137.18 319.79 151.008 326.109 160.04C326.143 160.143 326.269 160.04 326.269 159.926Z" fill="#263238"/>
<path d="M298.579 118.876C297.434 117.457 296.358 116.003 295.144 114.606C293.931 113.21 292.74 111.79 291.516 110.405C289.051 107.589 286.54 104.819 283.983 102.095C283.983 102.095 283.88 102.095 283.915 102.095C285.227 103.758 286.559 105.399 287.91 107.017C287.063 106.307 286.158 105.655 285.243 105.025C285.243 105.025 285.162 105.025 285.243 105.094C286.032 105.872 286.857 106.639 287.715 107.383L288.974 108.414C289.091 108.515 289.214 108.611 289.341 108.7C289.89 109.352 290.485 110.005 290.978 110.646C292.122 112.054 293.37 113.462 294.606 114.847C295.843 116.232 297.193 117.594 298.475 118.991C298.51 119.059 298.647 118.956 298.579 118.876Z" fill="#263238"/>
<path d="M301.875 178.951C299.197 176.661 303.455 174.796 303.455 174.796C303.455 174.796 296.69 175.94 294.847 172.506C293.004 169.072 298.281 167.137 298.67 166.989C298.315 167.046 292.077 167.962 290.577 164.299C289.077 160.635 294.618 159.353 294.984 159.273C294.629 159.273 289.936 158.472 289.432 155.438C288.574 150.219 302.184 151.226 305.458 148.479C305.458 148.479 304.92 141.61 304.84 141.461C305.538 143.05 306.746 144.36 308.274 145.182C311.113 146.327 313.689 147.139 314.719 148.685C315.188 149.361 315.431 150.168 315.412 150.991C315.394 151.814 315.115 152.609 314.616 153.264C314.616 153.264 318.371 153.264 319.641 156.114C320.282 157.568 318.497 159.903 318.497 159.903C319.346 159.951 320.166 160.231 320.866 160.714C321.567 161.196 322.121 161.862 322.469 162.639C323.259 164.699 321.324 166.725 321.324 166.725C321.324 166.725 324.151 168.191 324.255 170.56C324.598 175.402 307.622 183.885 301.875 178.951Z" fill="#AD6359"/>
<path d="M321.187 167.149C321.244 167.149 321.29 167.149 321.244 167.229C316.162 171.562 309.882 174.245 303.238 174.922C303.02 174.922 302.906 174.601 303.135 174.544C309.478 172.965 315.559 170.475 321.187 167.149Z" fill="#263238"/>
<path d="M318.668 159.96C318.737 159.96 318.794 160.017 318.737 160.075C313.084 164.794 305.931 167.339 298.567 167.252C298.315 167.252 298.086 166.977 298.384 166.966C303.375 166.794 313.437 163.2 318.668 159.96Z" fill="#263238"/>
<path d="M294.469 159.09C301.669 159.09 308.148 156.801 314.467 153.515C314.547 153.515 314.593 153.595 314.536 153.641C311.892 156.102 307.668 157.797 304.233 158.827C301.083 159.848 297.721 160.026 294.481 159.342C294.332 159.308 294.309 159.09 294.469 159.09Z" fill="#263238"/>
<path d="M321.622 166.783C322.275 166.251 322.769 165.551 323.05 164.757C323.33 163.963 323.387 163.108 323.213 162.284C322.972 161.497 322.456 160.822 321.759 160.384C320.903 159.973 319.96 159.777 319.012 159.811C319.614 159.139 319.999 158.301 320.117 157.407C320.236 156.512 320.082 155.603 319.676 154.797C319.208 154.088 318.488 153.585 317.661 153.389C316.706 153.189 315.728 153.116 314.753 153.172C315.207 152.753 315.555 152.233 315.77 151.654C315.985 151.075 316.06 150.454 315.99 149.841C315.887 149.168 315.626 148.53 315.228 147.979C314.83 147.427 314.306 146.979 313.7 146.67C312.28 145.96 310.782 145.418 309.236 145.056C308.439 144.844 307.67 144.537 306.946 144.14C306.305 143.751 305.401 142.995 305.31 142.228C305.31 142.068 305.069 142.171 305.149 142.228C305.461 142.754 305.801 143.262 306.168 143.751C306.6 144.22 307.092 144.628 307.633 144.964C308.994 145.661 310.401 146.262 311.846 146.761C313.109 147.246 314.173 148.141 314.868 149.303C315.179 149.91 315.314 150.592 315.257 151.272C315.201 151.951 314.955 152.602 314.547 153.149C314.536 153.163 314.529 153.18 314.527 153.198C314.526 153.216 314.529 153.234 314.538 153.25C314.546 153.266 314.56 153.279 314.576 153.288C314.591 153.296 314.61 153.3 314.628 153.298C315.5 153.391 316.357 153.591 317.18 153.893C317.858 154.163 318.44 154.629 318.852 155.232C319.215 155.972 319.377 156.794 319.32 157.616C319.264 158.438 318.992 159.231 318.531 159.914C319.461 160.1 320.351 160.444 321.164 160.933C321.688 161.335 322.086 161.879 322.309 162.501C322.559 163.212 322.605 163.979 322.443 164.715C322.282 165.451 321.918 166.127 321.393 166.668V166.725C321.393 166.725 322.286 167.229 322.331 167.24C322.377 167.252 322.331 167.24 322.331 167.183C322.102 167.037 321.865 166.903 321.622 166.783Z" fill="#263238"/>
<path d="M274.929 82.337C276.314 85.2789 277.676 88.2437 278.993 91.2199C280.309 94.1962 281.648 97.161 282.907 100.16L283.068 100.538L282.724 100.767L277.241 104.476L277.401 103.709C278.89 105.93 280.332 108.185 281.786 110.44L281.923 110.657L281.854 110.898C280.378 115.476 278.958 120.055 277.424 124.554C275.89 129.053 274.368 133.632 272.754 138.142C273.99 133.506 275.307 128.904 276.657 124.314C278.008 119.723 279.416 115.156 280.813 110.577V111.035C279.336 108.746 277.859 106.571 276.417 104.315L276.108 103.846L276.566 103.549L282.118 99.9427L281.934 100.549C280.687 97.5388 279.542 94.4938 278.329 91.4718C277.115 88.4497 276.051 85.359 274.929 82.337Z" fill="#A6A6A6"/>
<path d="M280.767 88.0033C280.481 81.341 272.181 79.6011 267.156 79.4637C261.192 79.3035 257.346 80.2307 255.148 86.229C252.859 92.5593 252.046 99.7023 251.611 106.399C251.597 106.657 251.482 106.899 251.29 107.072C251.097 107.245 250.844 107.334 250.586 107.32C250.328 107.307 250.086 107.191 249.913 106.999C249.741 106.807 249.651 106.554 249.665 106.296C250.169 98.5805 250.546 84.2486 257.621 79.3035C264.146 74.7246 282.232 76.808 282.713 88.1063C282.713 89.354 280.813 89.251 280.767 88.0033Z" fill="#455A64"/>
<path d="M245.979 109.799C245.935 110.683 246.154 111.56 246.608 112.32C247.063 113.08 247.732 113.687 248.532 114.067C249.332 114.446 250.227 114.579 251.102 114.45C251.978 114.321 252.796 113.935 253.452 113.341C254.109 112.747 254.574 111.972 254.79 111.113C255.006 110.255 254.962 109.351 254.665 108.518C254.367 107.684 253.829 106.957 253.118 106.429C252.408 105.901 251.556 105.596 250.672 105.552C249.488 105.499 248.331 105.915 247.452 106.71C246.574 107.505 246.044 108.615 245.979 109.799Z" fill="#263238"/>
<path d="M247.765 109.89C247.738 110.421 247.87 110.948 248.143 111.405C248.416 111.861 248.818 112.226 249.298 112.454C249.779 112.682 250.316 112.763 250.842 112.686C251.368 112.608 251.859 112.377 252.254 112.021C252.649 111.664 252.929 111.199 253.059 110.683C253.19 110.168 253.164 109.625 252.987 109.124C252.809 108.623 252.486 108.186 252.06 107.868C251.634 107.55 251.123 107.365 250.592 107.338C250.238 107.317 249.884 107.368 249.55 107.486C249.216 107.603 248.909 107.786 248.646 108.024C248.383 108.261 248.169 108.548 248.018 108.869C247.867 109.189 247.781 109.536 247.765 109.89Z" fill="#EBEBEB"/>
<path d="M276.337 109.467C273.498 128.595 274.757 133.048 276.531 135.017C277.863 136.369 279.489 137.395 281.282 138.016L281.717 136.722C280.141 136.164 278.713 135.256 277.539 134.067C276.257 132.647 274.872 128.572 277.676 109.638L276.337 109.467Z" fill="#C7C7C7"/>
<path d="M279.645 136.437L279.509 136.764C279.238 137.412 279.544 138.156 280.192 138.426L282.188 139.26C282.836 139.53 283.58 139.224 283.85 138.577L283.987 138.249C284.257 137.602 283.952 136.858 283.304 136.587L281.307 135.754C280.66 135.483 279.916 135.789 279.645 136.437Z" fill="#263238"/>
<path d="M288.494 108.585C293.725 122.184 295.465 129.751 293.965 132.407C293.079 133.822 291.886 135.019 290.474 135.91L291.172 137.054C292.782 136.036 294.14 134.667 295.144 133.048C296.93 129.888 295.373 122.654 289.764 108.082L288.494 108.585Z" fill="#C7C7C7"/>
<path d="M288.586 137.828L288.791 138.118C289.196 138.691 289.989 138.827 290.562 138.422L292.329 137.173C292.902 136.767 293.038 135.975 292.633 135.402L292.428 135.112C292.023 134.539 291.23 134.403 290.657 134.808L288.89 136.057C288.317 136.462 288.181 137.255 288.586 137.828Z" fill="#263238"/>
<path d="M290.176 107.463C289.217 104.431 288.07 101.46 286.742 98.569C286.007 97.3097 284.947 96.2703 283.674 95.5584C283.411 95.5584 283.262 93.1888 283.182 91.2428C283.125 89.5372 283.079 87.534 282.61 87.0303C282.346 86.8058 282.005 86.6923 281.66 86.7137C281.314 86.735 280.99 86.8895 280.755 87.1448C280.343 87.6942 280.538 89.686 280.664 91.3917C280.813 93.3377 280.95 95.7072 280.664 95.7301C279.585 96.6401 278.737 97.7936 278.191 99.0956C277.213 102.202 276.475 105.378 275.982 108.597C275.776 110.634 276.451 110.806 277.046 110.943C277.882 111.127 278.34 110.52 278.729 108.253C279.347 104.647 279.966 98.6262 282.392 98.3744C284.831 98.3744 286.502 104.464 287.658 107.853C288.379 109.97 288.803 110.142 289.673 109.844C290.199 109.661 290.783 109.398 290.176 107.463Z" fill="#263238"/>
<path d="M272.628 81.9248C272.181 83.0696 267.797 90.7506 262.325 90.7506C258.891 90.7506 259.716 78.9257 259.716 78.9257V78.1931L258.914 67.8906L271.735 62.0526L273.567 61.2971C273.567 61.2971 273.567 64.136 273.567 67.6617V68.1883C273.567 68.3943 273.567 68.5775 273.567 68.7606C273.567 69.2872 273.567 69.8252 273.567 70.3632C273.567 70.9012 273.567 71.176 273.567 71.5995C273.567 72.0231 273.567 72.4466 273.567 72.8816C273.458 75.9138 273.145 78.9351 272.628 81.9248Z" fill="#AD6359"/>
<path d="M273.544 67.6617C272.131 70.3218 270.156 72.6426 267.756 74.4631C265.356 76.2836 262.589 77.5603 259.647 78.2045L258.846 67.9021L271.666 62.064L273.498 61.3085C273.498 61.3085 273.532 64.136 273.544 67.6617Z" fill="#263238"/>
<path d="M245.956 52.54C244.262 70.6151 254.908 73.6715 258.8 74.0263C262.337 74.3583 274.425 75.0108 277.974 57.2105C281.522 39.4102 273.612 32.9082 265.599 31.7406C257.586 30.573 247.639 34.465 245.956 52.54Z" fill="#AD6359"/>
<path d="M251.863 48.5221C252.275 48.4728 252.684 48.4002 253.088 48.3046C253.535 48.2924 253.966 48.1313 254.312 47.8467C254.401 47.734 254.449 47.5949 254.449 47.4518C254.449 47.3086 254.401 47.1696 254.312 47.0568C254.115 46.8529 253.866 46.7051 253.593 46.6287C253.319 46.5523 253.03 46.5499 252.756 46.6219C252.174 46.6887 251.637 46.9654 251.245 47.4003C251.161 47.508 251.112 47.6376 251.101 47.7733C251.091 47.9089 251.12 48.0447 251.186 48.1639C251.251 48.283 251.351 48.3804 251.471 48.4441C251.591 48.5077 251.727 48.5348 251.863 48.5221Z" fill="#263238"/>
<path d="M264.249 49.0029C263.839 48.9228 263.433 48.8196 263.035 48.6938C262.606 48.6404 262.205 48.452 261.89 48.1558C261.804 48.0422 261.757 47.9035 261.757 47.7608C261.757 47.6182 261.804 47.4795 261.89 47.3659C262.103 47.1757 262.363 47.0457 262.642 46.9893C262.922 46.933 263.212 46.9523 263.482 47.0454C264.057 47.1528 264.571 47.4712 264.924 47.9383C264.999 48.0491 265.041 48.1796 265.043 48.3136C265.045 48.4476 265.008 48.5793 264.936 48.6924C264.864 48.8056 264.761 48.8953 264.639 48.9504C264.517 49.0056 264.381 49.0238 264.249 49.0029Z" fill="#263238"/>
<path d="M261.478 53.4901C261.478 53.4901 261.57 53.4901 261.57 53.6046C261.455 54.8295 261.57 56.2603 262.623 56.7411C262.623 56.7411 262.623 56.8213 262.623 56.8098C261.261 56.5351 261.181 54.6349 261.478 53.4901Z" fill="#263238"/>
<path d="M262.657 52.2653C264.661 52.2653 264.569 56.226 262.726 56.2489C260.883 56.2718 261.02 52.2882 262.657 52.2653Z" fill="#263238"/>
<path d="M263.436 52.4943C263.779 52.7232 264.111 53.1353 264.581 53.1811C265.05 53.2269 265.439 52.8377 265.725 52.437H265.794C265.794 53.204 265.473 53.9824 264.649 54.074C263.825 54.1655 263.379 53.4787 263.207 52.7003C263.173 52.6087 263.31 52.4027 263.436 52.4943Z" fill="#263238"/>
<path d="M254.026 53.1238C254.026 53.1238 253.923 53.1238 253.923 53.2383C253.923 54.4746 253.763 55.8941 252.641 56.2833C252.641 56.2833 252.641 56.3634 252.641 56.3519C254.015 56.1802 254.244 54.2914 254.026 53.1238Z" fill="#263238"/>
<path d="M252.939 51.8189C250.947 51.6471 250.741 55.6308 252.584 55.791C254.427 55.9513 254.599 51.9677 252.939 51.8189Z" fill="#263238"/>
<path d="M252.092 52.0364C251.771 52.231 251.439 52.5973 251.061 52.6087C250.684 52.6202 250.317 52.1623 250.066 51.7387C250.066 51.7387 250.008 51.7387 249.997 51.7387C249.94 52.5057 250.146 53.307 250.867 53.4901C251.588 53.6733 252.012 53.0323 252.275 52.3454C252.321 52.1623 252.229 51.9562 252.092 52.0364Z" fill="#263238"/>
<path d="M260.471 63.3232C260.185 63.6209 259.899 64.0215 259.452 64.0673C258.995 64.0681 258.543 63.9746 258.124 63.7926C258.124 63.7926 258.044 63.7926 258.067 63.7926C258.248 64.0323 258.49 64.2185 258.768 64.3314C259.047 64.4443 259.35 64.4796 259.647 64.4336C259.901 64.3595 260.128 64.2108 260.297 64.0068C260.467 63.8028 260.571 63.5528 260.597 63.2889C260.62 63.3004 260.517 63.2775 260.471 63.3232Z" fill="#263238"/>
<path d="M255.457 58.6757C255.457 58.6757 255.148 60.5187 255.114 61.3887C255.114 61.4688 255.32 61.5146 255.617 61.5375C256.36 61.6971 257.132 61.6491 257.849 61.3987C258.566 61.1483 259.2 60.7052 259.681 60.118C259.75 60.0379 259.681 59.9463 259.567 59.9921C258.43 60.719 257.088 61.0565 255.743 60.9537C255.743 60.7133 256.396 57.8286 256.258 57.8057C255.581 57.8496 254.911 57.9804 254.267 58.1949C254.816 54.3487 255.972 50.6284 256.465 46.7478C256.465 46.7174 256.452 46.6883 256.431 46.6668C256.41 46.6454 256.38 46.6333 256.35 46.6333C256.32 46.6333 256.291 46.6454 256.269 46.6668C256.248 46.6883 256.236 46.7174 256.236 46.7478C254.871 50.7015 253.904 54.7817 253.351 58.9275C253.294 59.4083 255.114 58.8131 255.457 58.6757Z" fill="#263238"/>
<path d="M256.213 61.0911C256.633 61.735 257.213 62.2594 257.895 62.6135C258.253 62.777 258.651 62.8327 259.04 62.7738C259.944 62.6135 260.025 61.8122 259.91 61.1025C259.857 60.7092 259.753 60.3244 259.601 59.9578C258.621 60.6874 257.434 61.0845 256.213 61.0911Z" fill="#263238"/>
<path d="M257.895 62.6135C258.253 62.777 258.651 62.8326 259.04 62.7738C259.944 62.6135 260.025 61.8122 259.91 61.1025C259.455 61.0981 259.011 61.2437 258.647 61.5168C258.283 61.7899 258.019 62.1753 257.895 62.6135Z" fill="#FF9CBD"/>
<path d="M247.021 46.1525C249.15 46.8393 256.739 42.1231 259.784 35.335C260.314 39.2888 262.209 42.9332 265.141 45.6374C270.087 50.2163 274.78 50.5597 274.78 50.5597C274.78 50.5597 276.245 58.7329 277.596 58.9161C278.947 59.0992 287.452 31.111 263.665 30.7904C263.665 30.7904 256.705 30.0922 252.355 34.1559C248.005 38.2196 247.021 46.1525 247.021 46.1525Z" fill="#263238"/>
<path d="M274.975 56.5465C274.975 56.5465 278.97 50.9145 281.534 52.334C284.098 53.7534 281.064 61.961 278.031 63.0714C277.653 63.2391 277.244 63.3284 276.83 63.3341C276.416 63.3398 276.006 63.2617 275.623 63.1045C275.24 62.9473 274.893 62.7142 274.602 62.4193C274.312 62.1245 274.084 61.7739 273.933 61.3887L274.975 56.5465Z" fill="#AD6359"/>
<path d="M280.607 54.6692C280.607 54.6692 280.664 54.6692 280.607 54.7493C278.489 55.5964 277.356 57.5424 276.566 59.58C276.69 59.3685 276.859 59.1865 277.06 59.0466C277.262 58.9067 277.492 58.8122 277.733 58.7698C277.975 58.7273 278.223 58.7378 278.46 58.8007C278.697 58.8635 278.918 58.9771 279.107 59.1336C279.164 59.1336 279.107 59.2595 279.05 59.2366C278.677 59.1197 278.278 59.1196 277.906 59.2362C277.533 59.3528 277.205 59.5807 276.966 59.8891C276.57 60.4075 276.232 60.968 275.959 61.5604C275.856 61.755 275.513 61.652 275.593 61.4345C275.581 58.6871 277.71 54.921 280.607 54.6692Z" fill="#263238"/>
<path d="M259.612 81.7761C258.823 82.1882 259.979 96.9092 260.482 97.7334C260.666 98.0425 270.327 90.4072 273.544 80.5627C273.544 80.597 267.889 77.4948 259.612 81.7761Z" fill="#AD6359"/>
<path d="M242.672 111.252L198.603 124.969L216.458 182.329L260.527 168.612L242.672 111.252Z" fill="#455A64"/>
<path d="M211.066 124.799L231.945 118.272L229.967 111.946L209.088 118.473L211.066 124.799Z" fill="#A6A6A6"/>
<path d="M213.835 116.987L216.411 116.186L215.495 113.267L221.745 111.31L222.661 114.229L225.225 113.427L223.565 108.116L212.141 111.687L213.835 116.987Z" fill="#A6A6A6"/>
<path d="M251.21 133.105C251.89 133.801 252.341 134.688 252.503 135.648C252.665 136.607 252.529 137.593 252.115 138.474C253.733 138.809 255.183 139.7 256.213 140.992C257.918 143.35 254.965 147.071 254.965 147.071C256.573 147.766 257.934 148.931 258.868 150.413C260.276 152.828 257.838 157.007 257.838 157.007C258.96 158.464 259.52 160.276 259.418 162.112C258.949 167 252.229 170.343 247.971 172.518C243.712 174.693 229.655 176.879 227.011 177.566L212.828 150.425C212.828 150.425 229.106 135.269 234.463 133.426C238.985 131.869 248.509 130.541 251.21 133.105Z" fill="#AD6359"/>
<path d="M214.763 148.662C209.909 152.394 195.302 166.76 198.737 174.074C202.171 181.389 213.893 180.657 230.113 176.936L214.763 148.662Z" fill="#AD6359"/>
<path d="M214.763 148.662C209.909 152.394 194.57 166.416 198.45 175.814C201.541 183.278 215.323 184.182 231.59 180.393L214.763 148.662Z" fill="#EBEBEB"/>
<path d="M223.245 180.702C218.162 168.626 210.974 156.663 209.875 154.523C209.871 154.509 209.864 154.496 209.855 154.485C209.845 154.474 209.834 154.466 209.82 154.46C209.807 154.455 209.793 154.453 209.778 154.454C209.764 154.455 209.75 154.46 209.738 154.467C209.726 154.475 209.715 154.485 209.708 154.497C209.7 154.509 209.696 154.523 209.695 154.538C209.693 154.552 209.696 154.566 209.701 154.58C209.706 154.593 209.715 154.605 209.726 154.614C210.871 156.686 217.636 171.213 223.073 180.817C223.119 180.92 223.245 180.828 223.245 180.702Z" fill="#263238"/>
<path d="M251.691 138.142C246.505 138.634 241.743 140.649 236.878 142.389C236.857 142.396 236.84 142.412 236.83 142.432C236.82 142.453 236.819 142.476 236.827 142.497C236.835 142.519 236.85 142.536 236.871 142.546C236.891 142.555 236.914 142.557 236.936 142.549C241.755 140.775 246.872 139.962 251.748 138.382C251.775 138.37 251.796 138.349 251.809 138.323C251.822 138.297 251.825 138.267 251.819 138.238C251.812 138.21 251.795 138.185 251.772 138.167C251.749 138.15 251.72 138.141 251.691 138.142Z" fill="#263238"/>
<path d="M254.702 146.762C253.531 146.993 252.395 147.378 251.325 147.906C250.18 148.398 249.035 148.891 247.891 149.417C245.601 150.459 243.312 151.546 241.08 152.714C240.977 152.714 241.08 152.932 241.08 152.874C243.369 151.844 245.658 150.848 248.017 149.909C249.161 149.44 250.306 148.982 251.531 148.536C252.666 148.175 253.759 147.696 254.793 147.105C254.839 147.093 254.878 147.063 254.901 147.022C254.925 146.981 254.931 146.933 254.919 146.887C254.907 146.842 254.877 146.803 254.836 146.779C254.796 146.756 254.747 146.749 254.702 146.762Z" fill="#263238"/>
<path d="M257.735 157.041C256.685 157.25 255.678 157.637 254.759 158.186L251.634 159.651C249.55 160.624 247.467 161.586 245.349 162.49C245.246 162.49 245.349 162.696 245.407 162.65C247.57 161.757 249.734 160.887 251.886 159.972L255.045 158.598C256.041 158.262 256.971 157.754 257.792 157.098C257.792 157.098 257.792 157.041 257.735 157.041Z" fill="#263238"/>
<path d="M214.087 148.914C212.385 150.168 210.771 151.537 209.256 153.012L208.112 154.156L207.62 154.477C206.933 154.935 206.246 155.404 205.605 155.919C204.362 156.931 203.184 158.021 202.079 159.182C201.999 159.273 202.079 159.388 202.217 159.308C203.425 158.219 204.715 157.224 206.074 156.331L206.601 155.976C205.96 156.675 205.342 157.396 204.769 158.14C203.225 160.116 201.803 162.184 200.511 164.333C200.454 164.436 200.614 164.516 200.671 164.413C203.041 160.613 213.366 150.448 214.499 149.223C215.633 147.998 214.98 148.215 214.087 148.914Z" fill="#263238"/>
<path d="M191.282 110.276C201.369 102.131 202.943 87.3513 194.798 77.2642C186.653 67.1772 171.873 65.6029 161.786 73.7479C151.699 81.8929 150.125 96.673 158.27 106.76C166.415 116.847 181.195 118.421 191.282 110.276Z" fill="#EBEBEB"/>
<path opacity="0.5" d="M183.686 114.375C180.177 115.498 176.453 115.78 172.815 115.197C169.177 114.614 165.727 113.183 162.745 111.019C159.763 108.856 157.331 106.021 155.648 102.744C153.964 99.4664 153.076 95.839 153.054 92.1547C153.033 88.4705 153.879 84.8328 155.524 81.5361C157.169 78.2394 159.566 75.3761 162.523 73.178C165.48 70.9798 168.913 69.5084 172.543 68.8829C176.174 68.2574 179.901 68.4952 183.423 69.5772C178.692 68.328 173.67 68.8252 169.276 70.9778C164.882 73.1305 161.411 76.7944 159.498 81.2982C157.586 85.802 157.361 90.844 158.863 95.5005C160.366 100.157 163.497 104.116 167.681 106.652C171.865 109.188 176.824 110.132 181.647 109.309C186.47 108.487 190.836 105.955 193.944 102.175C197.052 98.3963 198.694 93.6238 198.569 88.7324C198.445 83.841 196.562 79.1583 193.265 75.5424C196.077 78.4015 198.109 81.9328 199.169 85.7999C200.229 89.667 200.282 93.7412 199.321 97.6343C198.361 101.527 196.42 105.11 193.683 108.04C190.946 110.971 187.504 113.151 183.686 114.375Z" fill="#DBDBDB"/>
<path d="M167.595 90.0002C167.793 90.6225 167.803 91.2898 167.623 91.9177C167.442 92.5455 167.079 93.1058 166.58 93.5276C166.082 93.9494 165.469 94.2138 164.82 94.2875C164.171 94.3611 163.514 94.2407 162.934 93.9414C162.353 93.642 161.874 93.1773 161.557 92.6058C161.241 92.0344 161.101 91.3819 161.155 90.7308C161.209 90.0798 161.455 89.4594 161.862 88.9481C162.268 88.4368 162.817 88.0576 163.439 87.8583C163.853 87.7258 164.288 87.6762 164.721 87.7122C165.154 87.7482 165.575 87.8691 165.961 88.068C166.347 88.2669 166.69 88.5399 166.97 88.8715C167.251 89.203 167.463 89.5866 167.595 90.0002Z" fill="#C7C7C7"/>
<path d="M188.949 83.1729C189.148 83.7953 189.158 84.4626 188.977 85.0904C188.797 85.7183 188.434 86.2785 187.935 86.7003C187.436 87.1221 186.824 87.3866 186.174 87.4602C185.525 87.5339 184.869 87.4134 184.288 87.1141C183.708 86.8148 183.229 86.35 182.912 85.7786C182.595 85.2071 182.455 84.5546 182.509 83.9036C182.564 83.2525 182.81 82.6321 183.216 82.1208C183.623 81.6095 184.172 81.2303 184.794 81.031C185.629 80.7665 186.535 80.8433 187.314 81.2447C188.092 81.646 188.68 82.3393 188.949 83.1729Z" fill="#C7C7C7"/>
<path d="M179.562 85.122C179.965 86.381 179.851 87.7483 179.246 88.9233C178.64 90.0982 177.593 90.9844 176.334 91.3871C175.075 91.7897 173.707 91.6757 172.532 91.0701C171.357 90.4646 170.471 89.4171 170.069 88.1582L179.562 85.122Z" fill="#C7C7C7"/>
<path d="M179.466 88.4312C179.197 89.1256 178.776 89.7509 178.234 90.2613C177.692 90.7717 177.043 91.1542 176.333 91.3807C175.624 91.6072 174.873 91.6719 174.136 91.5702C173.398 91.4684 172.693 91.2027 172.071 90.7927C172.819 89.5814 173.976 88.6776 175.332 88.2445C176.688 87.8114 178.154 87.8777 179.466 88.4312Z" fill="#DBDBDB"/>
<path d="M52.4053 136.733C54.1788 127.566 48.1857 118.698 39.0193 116.924C29.853 115.151 20.9846 121.144 19.2111 130.31C17.4377 139.477 23.4308 148.345 32.5971 150.119C41.7634 151.892 50.6319 145.899 52.4053 136.733Z" fill="#EBEBEB"/>
<path opacity="0.5" d="M31.5148 149.871C28.9486 149.199 26.5766 147.932 24.5907 146.174C22.6047 144.415 21.0606 142.213 20.0832 139.747C19.1058 137.281 18.7225 134.619 18.9643 131.977C19.2062 129.335 20.0664 126.788 21.4753 124.54C22.8843 122.292 24.8025 120.408 27.0748 119.039C29.3471 117.67 31.9097 116.854 34.5553 116.659C37.201 116.464 39.8554 116.894 42.304 117.915C44.7525 118.936 46.9265 120.519 48.65 122.536C46.2538 119.943 43.0038 118.302 39.4954 117.911C35.9871 117.521 32.4556 118.408 29.5482 120.41C26.6408 122.412 24.5523 125.394 23.6655 128.811C22.7787 132.228 23.153 135.85 24.7198 139.013C26.2865 142.176 28.9408 144.669 32.1962 146.034C35.4515 147.399 39.0898 147.545 42.4441 146.446C45.7984 145.346 48.6441 143.074 50.4596 140.047C52.275 137.02 52.9386 133.439 52.3287 129.963C52.9356 132.787 52.8087 135.72 51.9601 138.482C51.1116 141.243 49.5696 143.742 47.4814 145.738C45.3931 147.734 42.8282 149.163 40.0312 149.886C37.2343 150.61 34.2986 150.605 31.5041 149.871H31.5148Z" fill="#DBDBDB"/>
<path d="M46.7651 132.934C46.645 133.389 46.393 133.797 46.0409 134.109C45.6887 134.42 45.2523 134.62 44.7866 134.683C44.3209 134.746 43.8469 134.67 43.4245 134.464C43.0021 134.258 42.6502 133.932 42.4133 133.526C42.1763 133.12 42.065 132.653 42.0933 132.184C42.1216 131.715 42.2883 131.264 42.5724 130.89C42.8564 130.516 43.245 130.234 43.6891 130.08C44.1333 129.927 44.613 129.908 45.0676 130.027C45.3706 130.105 45.6551 130.243 45.9046 130.432C46.1542 130.621 46.3639 130.857 46.5216 131.127C46.6794 131.398 46.7822 131.696 46.824 132.006C46.8657 132.317 46.8457 132.632 46.7651 132.934Z" fill="#C7C7C7"/>
<path d="M31.1452 128.838C31.0252 129.292 30.7732 129.701 30.421 130.012C30.0689 130.323 29.6324 130.523 29.1667 130.587C28.701 130.65 28.2271 130.574 27.8046 130.368C27.3822 130.162 27.0303 129.835 26.7934 129.429C26.5565 129.023 26.4451 128.557 26.4734 128.087C26.5018 127.618 26.6685 127.168 26.9525 126.794C27.2365 126.419 27.6252 126.138 28.0693 125.984C28.5134 125.83 28.9931 125.812 29.4478 125.93C29.7507 126.009 30.0352 126.147 30.2847 126.335C30.5343 126.524 30.744 126.761 30.9018 127.031C31.0596 127.301 31.1623 127.6 31.2041 127.91C31.2459 128.22 31.2259 128.536 31.1452 128.838Z" fill="#C7C7C7"/>
<path d="M32.7516 128.19C32.7485 129.216 33.0403 130.222 33.5923 131.087C34.1735 131.872 35.0138 132.426 35.9645 132.651C36.8945 132.944 37.8994 132.889 38.7918 132.495C39.7081 132.031 40.4872 131.335 41.0515 130.477C40.7308 131.544 40.0296 132.457 39.0809 133.042C38.5917 133.337 38.043 133.52 37.4745 133.577C36.9015 133.622 36.3252 133.566 35.7717 133.411C35.2218 133.255 34.701 133.011 34.2295 132.688C33.7575 132.351 33.3676 131.912 33.089 131.403C32.5615 130.417 32.4405 129.264 32.7516 128.19Z" fill="#C7C7C7"/>
<path d="M471.551 395.347C476.217 390.681 476.217 383.115 471.551 378.449C466.885 373.783 459.319 373.783 454.653 378.449C449.987 383.115 449.987 390.681 454.653 395.347C459.319 400.013 466.885 400.013 471.551 395.347Z" fill="#04C9D8"/>
<path opacity="0.1" d="M459.065 398.144C457.298 397.511 455.705 396.472 454.415 395.11C453.125 393.747 452.174 392.1 451.638 390.302C451.103 388.504 450.998 386.605 451.333 384.759C451.668 382.913 452.433 381.171 453.566 379.676C454.699 378.18 456.168 376.972 457.855 376.15C459.541 375.328 461.398 374.914 463.274 374.942C465.15 374.971 466.993 375.441 468.653 376.314C470.314 377.187 471.746 378.439 472.833 379.968C471.307 377.994 469.12 376.635 466.674 376.142C464.228 375.648 461.685 376.053 459.513 377.282C457.341 378.511 455.685 380.482 454.848 382.833C454.011 385.184 454.049 387.758 454.956 390.083C455.862 392.408 457.577 394.329 459.784 395.492C461.992 396.656 464.545 396.985 466.976 396.419C469.407 395.853 471.552 394.43 473.018 392.411C474.485 390.392 475.175 387.911 474.961 385.425C475.212 387.451 474.94 389.508 474.171 391.399C473.402 393.29 472.162 394.953 470.568 396.228C468.974 397.504 467.08 398.351 465.066 398.687C463.053 399.023 460.987 398.838 459.065 398.15V398.144Z" fill="black"/>
<path d="M456.945 382.176C456.993 381.938 457.088 381.712 457.224 381.511C457.361 381.31 457.536 381.138 457.739 381.006C457.952 380.863 458.194 380.769 458.448 380.73C458.71 380.693 458.977 380.72 459.226 380.809C459.475 380.898 459.698 381.046 459.878 381.241C460.05 381.431 460.177 381.658 460.249 381.904C460.323 382.136 460.349 382.38 460.327 382.622C460.304 382.864 460.233 383.099 460.118 383.313C460.174 382.874 460.108 382.428 459.927 382.025C459.848 381.84 459.733 381.674 459.587 381.536C459.441 381.398 459.269 381.292 459.08 381.224C458.891 381.156 458.69 381.128 458.49 381.142C458.29 381.156 458.095 381.211 457.917 381.304C457.518 381.499 457.182 381.8 456.945 382.176Z" fill="#263238"/>
<path d="M467.687 386.029C467.735 385.791 467.83 385.565 467.966 385.364C468.103 385.163 468.278 384.992 468.481 384.859C468.694 384.715 468.937 384.621 469.192 384.584C469.453 384.547 469.718 384.575 469.966 384.663C470.213 384.753 470.434 384.9 470.613 385.092C470.786 385.283 470.914 385.511 470.987 385.758C471.059 385.99 471.085 386.234 471.062 386.476C471.039 386.718 470.968 386.953 470.854 387.167C470.91 386.728 470.844 386.282 470.664 385.878C470.586 385.694 470.47 385.527 470.324 385.389C470.178 385.251 470.005 385.145 469.816 385.078C469.627 385.01 469.427 384.982 469.226 384.996C469.026 385.009 468.831 385.065 468.653 385.157C468.257 385.354 467.922 385.655 467.687 386.029Z" fill="#263238"/>
<path d="M461.685 383.336C461.632 383.939 461.755 384.544 462.04 385.078C462.347 385.568 462.817 385.934 463.368 386.111C463.904 386.325 464.5 386.336 465.044 386.142C465.604 385.908 466.091 385.53 466.457 385.047C466.217 385.656 465.765 386.156 465.183 386.456C464.879 386.607 464.545 386.69 464.205 386.699C463.869 386.699 463.535 386.64 463.219 386.526C462.903 386.41 462.609 386.244 462.347 386.034C462.087 385.815 461.878 385.543 461.734 385.235C461.473 384.632 461.455 383.951 461.685 383.336Z" fill="#263238"/>
<path d="M401.129 413.98C406.211 413.725 410.124 409.397 409.868 404.315C409.613 399.232 405.285 395.319 400.203 395.575C395.12 395.831 391.207 400.158 391.463 405.241C391.719 410.323 396.046 414.236 401.129 413.98Z" fill="#04C9D8"/>
<path opacity="0.1" d="M403.32 413.603C401.935 414.019 400.472 414.103 399.048 413.849C397.625 413.595 396.282 413.01 395.126 412.14C393.971 411.271 393.037 410.141 392.399 408.844C391.761 407.546 391.438 406.117 391.454 404.671C391.471 403.226 391.828 401.804 392.496 400.522C393.164 399.24 394.124 398.132 395.299 397.29C396.474 396.448 397.831 395.893 399.26 395.672C400.688 395.451 402.149 395.57 403.524 396.018C401.672 395.491 399.693 395.649 397.949 396.463C396.204 397.277 394.812 398.693 394.026 400.45C393.241 402.208 393.115 404.189 393.672 406.032C394.23 407.874 395.432 409.454 397.06 410.482C398.687 411.51 400.631 411.917 402.534 411.628C404.437 411.339 406.172 410.374 407.422 408.91C408.671 407.446 409.351 405.58 409.336 403.655C409.322 401.73 408.614 399.875 407.343 398.43C408.426 399.571 409.199 400.972 409.588 402.497C409.977 404.022 409.969 405.622 409.565 407.143C409.16 408.664 408.373 410.057 407.278 411.187C406.183 412.318 404.817 413.15 403.309 413.603H403.32Z" fill="black"/>
<path d="M394.842 405.159C394.757 404.99 394.707 404.805 394.696 404.616C394.685 404.427 394.713 404.237 394.779 404.06C394.844 403.869 394.953 403.696 395.096 403.553C395.244 403.409 395.424 403.301 395.623 403.241C395.822 403.182 396.032 403.173 396.235 403.214C396.433 403.256 396.619 403.342 396.778 403.466C396.93 403.579 397.057 403.722 397.151 403.886C397.245 404.051 397.304 404.233 397.324 404.421C397.149 404.133 396.901 403.896 396.605 403.733C396.341 403.587 396.029 403.551 395.739 403.633C395.596 403.677 395.464 403.749 395.349 403.844C395.234 403.939 395.139 404.056 395.069 404.189C394.909 404.486 394.831 404.821 394.842 405.159Z" fill="#263238"/>
<path d="M405.605 401.393C405.678 401.638 405.677 401.9 405.602 402.146C405.527 402.391 405.38 402.608 405.182 402.77C404.983 402.932 404.741 403.031 404.485 403.056C404.23 403.08 403.973 403.028 403.747 402.907C403.522 402.785 403.337 402.599 403.217 402.373C403.097 402.146 403.046 401.889 403.072 401.634C403.098 401.379 403.199 401.137 403.362 400.939C403.525 400.742 403.744 400.597 403.989 400.523C404.152 400.474 404.324 400.457 404.493 400.475C404.663 400.492 404.827 400.542 404.977 400.623C405.127 400.704 405.26 400.813 405.368 400.946C405.475 401.078 405.556 401.23 405.605 401.393Z" fill="#263238"/>
<path d="M398.251 403.945C398.251 403.945 398.837 404.736 400.242 404.609C400.242 404.609 400.038 407.254 398.381 406.631C396.725 406.008 398.251 403.945 398.251 403.945Z" fill="#DD6A57"/>
<path d="M397.74 403.165C398.025 403.647 398.445 404.035 398.947 404.282C399.442 404.486 399.994 404.507 400.503 404.34C401.025 404.214 401.482 403.9 401.786 403.457C402.078 402.98 402.238 402.434 402.249 401.875C402.395 402.463 402.323 403.084 402.045 403.623C401.895 403.901 401.686 404.143 401.432 404.331C401.179 404.515 400.896 404.653 400.595 404.74C400.296 404.823 399.986 404.857 399.676 404.84C399.363 404.817 399.059 404.725 398.786 404.57C398.269 404.255 397.894 403.751 397.74 403.165Z" fill="#263238"/>
<path d="M398.702 405.931C398.717 405.679 398.769 405.431 398.857 405.195C398.938 404.956 399.055 404.731 399.204 404.528C399.191 404.78 399.139 405.028 399.049 405.265C398.969 405.503 398.852 405.728 398.702 405.931Z" fill="#263238"/>
<path d="M78.7612 262.598C77.5076 271.332 77.9582 280.226 80.0879 288.788C81.0991 292.749 82.4403 296.618 84.0975 300.355C86.1844 305.155 88.3606 309.835 87.8389 315.082C87.3321 315.41 89.0761 315.365 89.1209 314.843C103.132 306.869 121.109 305.408 131.886 292.365C136.999 286.194 139.577 278.369 140.83 270.528C142.156 262.002 142.514 252.566 140.323 244.16C138.459 237.049 134.36 230.208 127.638 226.72C120.736 223.127 111.703 223.425 104.459 225.691C88.7631 230.55 80.9524 247.439 78.7612 262.598Z" fill="#04C9D8"/>
<path d="M71.5764 366.373C73.4844 359.993 75.3924 353.628 77.3599 347.264C81.2057 334.817 85.2005 322.401 89.6275 310.148C92.2609 302.804 95.0533 295.53 98.0046 288.326C97.6844 283.783 97.1271 279.261 96.3352 274.776C95.1576 269.35 93.4583 264.104 91.8634 258.782C91.7591 258.454 92.2957 258.29 92.4298 258.603C95.575 265.922 99.6741 275.298 99.7785 283.943C103.207 275.79 106.859 267.741 110.794 259.84C111.246 253.144 111.041 246.419 110.183 239.762C110.171 239.73 110.166 239.695 110.169 239.661C110.171 239.626 110.182 239.593 110.199 239.562C110.216 239.532 110.239 239.506 110.267 239.486C110.295 239.466 110.327 239.452 110.361 239.445C110.395 239.439 110.43 239.44 110.464 239.448C110.497 239.456 110.529 239.472 110.556 239.493C110.583 239.515 110.605 239.542 110.62 239.573C110.635 239.604 110.644 239.638 110.645 239.673C111.849 245.494 112.31 251.444 112.016 257.381C114.997 251.419 118.202 245.561 121.586 239.777C121.884 239.255 122.614 239.777 122.346 240.314C117.069 250.45 112.195 260.794 107.604 271.288C114.055 265.692 121.511 261.372 129.575 258.559C129.918 258.439 130.187 258.946 129.829 259.095C121.031 262.873 112.984 268.199 106.069 274.821C102.77 282.512 99.6294 290.253 96.6482 298.044C105.428 289.459 117.412 283.809 129.024 280.768C129.426 280.664 129.516 281.275 129.143 281.38C115.728 285.434 105.294 293.051 95.0682 302.248C93.8757 305.408 92.713 308.568 91.5802 311.728C87.2475 323.742 83.1235 335.821 79.2083 347.964C77.3301 353.797 75.4768 359.631 73.6484 365.464C71.6957 371.739 70.1604 378.387 67.6114 384.454C67.358 385.02 66.3295 384.901 66.4488 384.201C67.8588 378.176 69.5701 372.226 71.5764 366.373Z" fill="#263238"/>
<path d="M94.8148 250.331C97.304 254.153 99.016 258.427 99.853 262.911C99.853 263.015 99.704 263.09 99.6593 262.911C98.0907 258.689 96.2638 254.567 94.1888 250.569C93.9801 250.226 94.5763 249.958 94.8148 250.331Z" fill="#263238"/>
<path d="M119.812 279.516C123.714 277.365 127.969 275.932 132.377 275.283C132.497 275.283 132.571 275.432 132.452 275.492C130.425 276.327 128.308 276.982 126.251 277.698C124.194 278.413 122.197 279.442 120.125 280.172C120.038 280.214 119.938 280.219 119.847 280.187C119.756 280.155 119.682 280.088 119.64 280.001C119.599 279.914 119.594 279.814 119.626 279.723C119.658 279.632 119.725 279.558 119.812 279.516Z" fill="#263238"/>
<path d="M126.848 244.398C128.118 243.443 129.476 242.609 130.902 241.909C130.95 241.879 131.007 241.869 131.061 241.882C131.116 241.895 131.163 241.928 131.193 241.976C131.222 242.023 131.232 242.08 131.219 242.135C131.207 242.189 131.173 242.237 131.126 242.266C129.883 243.248 128.55 244.112 127.146 244.845C126.877 244.994 126.594 244.577 126.848 244.398Z" fill="#263238"/>
<path d="M31.5242 310.178C41.6155 313.159 51.7664 315.946 61.8577 318.913C62.7223 319.166 79.7448 286.477 73.6185 269.634C67.9244 254.057 54.8817 242.386 39.3349 237.094C32.1353 234.65 23.2812 232.622 15.6643 234.262C8.897 235.753 4.1122 241.298 1.92103 247.677C-1.06015 256.323 -0.0763608 266.638 1.54838 275.477C2.84272 283.77 6.2629 291.586 11.4757 298.164C16.8568 304.528 23.6687 307.852 31.5242 310.178Z" fill="#04C9D8"/>
<path d="M16.8567 279.114C23.2365 282.225 29.8501 284.831 36.6368 286.91C41.1674 288.119 45.5858 289.715 49.8435 291.68C45.5804 282.184 40.8999 272.883 35.9512 263.656C29.4224 261.778 22.5359 258.827 17.6616 254.221C17.6154 254.171 17.5889 254.105 17.5872 254.037C17.5855 253.968 17.6085 253.902 17.6521 253.849C17.6957 253.796 17.757 253.761 17.8245 253.75C17.892 253.739 17.9612 253.753 18.0194 253.789C23.4004 257.59 29.3329 259.87 35.2804 262.449C33.9389 259.965 32.5775 257.48 31.1962 254.996C30.8086 254.31 31.7626 253.625 32.2247 254.295C37.566 262.013 42.3911 270.074 46.6685 278.428C47.7471 271.127 48.0966 263.737 47.712 256.367C47.7218 256.338 47.7407 256.312 47.7661 256.293C47.7916 256.275 47.8222 256.265 47.8536 256.265C47.885 256.265 47.9155 256.275 47.941 256.293C47.9664 256.312 47.9854 256.338 47.9952 256.367C49.2578 264.409 49.1772 272.604 47.7567 280.619C51.2894 287.67 54.509 294.914 57.4157 302.233C58.5634 297.836 60.054 293.498 61.0527 289.071C62.5992 282.736 63.1026 276.191 62.5433 269.693C62.5433 269.654 62.559 269.616 62.587 269.588C62.6149 269.56 62.6529 269.544 62.6924 269.544C62.7319 269.544 62.7698 269.56 62.7978 269.588C62.8257 269.616 62.8415 269.654 62.8415 269.693C64.5783 281.723 63.0812 293.999 58.5038 305.259C60.1882 309.731 61.7981 314.098 63.2737 318.54C70.8879 341.18 75.4007 364.747 76.6891 388.598C76.6704 388.697 76.6178 388.786 76.5402 388.851C76.4626 388.915 76.365 388.95 76.2642 388.95C76.1635 388.95 76.0658 388.915 75.9883 388.851C75.9107 388.786 75.8581 388.697 75.8394 388.598C73.2019 365.08 68.1623 341.895 60.7994 319.405C57.8182 310.61 54.509 302.069 50.8124 293.692C44.85 291.918 38.8876 289.533 33.0594 287.506C27.2312 285.479 21.4924 283.243 16.6629 279.486C16.6384 279.474 16.6167 279.456 16.599 279.435C16.5813 279.414 16.5679 279.39 16.5596 279.363C16.5513 279.337 16.5482 279.309 16.5506 279.282C16.553 279.254 16.5608 279.228 16.5735 279.203C16.5862 279.179 16.6036 279.157 16.6247 279.139C16.6459 279.122 16.6703 279.108 16.6966 279.1C16.7229 279.092 16.7505 279.089 16.778 279.091C16.8055 279.093 16.8322 279.101 16.8567 279.114Z" fill="#263238"/>
<path d="M7.49593 269.619C13.667 271.81 19.5101 274.881 25.6812 277.072C25.9644 277.176 25.8004 277.623 25.5023 277.564C18.9884 276.222 12.5043 274.21 7.25743 269.932C7.04875 269.813 7.27234 269.485 7.49593 269.619Z" fill="#263238"/>
<path d="M57.8779 256.308C57.8779 255.98 58.2804 255.786 58.3847 256.129C60.084 261.808 61.2467 267.845 59.607 273.658C59.5325 273.897 59.1748 273.897 59.1599 273.658C58.8617 267.77 59.1897 262.032 57.8779 256.308Z" fill="#263238"/>
<path d="M32.3889 243.161C34.353 245.988 35.2941 249.401 35.057 252.835C35.057 253.044 34.6993 253.178 34.6397 252.924C33.8944 249.66 32.6423 246.694 31.6585 243.534C31.6313 243.44 31.6376 243.341 31.6761 243.251C31.7146 243.162 31.783 243.089 31.8696 243.045C31.9561 243.001 32.0552 242.988 32.15 243.01C32.2448 243.031 32.3293 243.084 32.3889 243.161Z" fill="#263238"/>
<path d="M151.561 324.636C148.58 334.027 141.574 346.995 130.44 347.115C123.225 347.189 115.951 346.325 108.722 346.22C100.97 346.101 93.2045 346.131 85.4832 346.578C84.8423 346.578 86.4074 323.384 105.025 312.071C110.242 308.911 116.622 307.897 122.539 306.615C129.315 305.016 136.269 304.295 143.229 304.469C147.507 304.633 151.069 305.542 152.59 309.924C154.11 314.307 152.977 320.165 151.561 324.636Z" fill="#04C9D8"/>
<path d="M143.557 312.846C139.085 314.009 134.464 315.35 129.918 316.796C131.103 315.507 132.357 314.283 133.674 313.129C135.627 311.504 137.774 310.222 139.86 308.791C140.039 308.672 139.935 308.344 139.711 308.434C135.306 310.263 131.501 313.289 128.726 317.169C123.061 318.987 117.457 321.014 112.061 323.22C108.335 324.745 104.766 326.627 101.403 328.84C102.485 326.487 103.777 324.237 105.264 322.117C107.723 318.913 111.077 317.139 114.312 314.858C114.377 314.819 114.424 314.755 114.442 314.681C114.46 314.607 114.448 314.528 114.409 314.463C114.369 314.398 114.305 314.351 114.231 314.333C114.157 314.315 114.079 314.327 114.013 314.366C110.631 315.835 107.593 317.994 105.093 320.704C102.593 323.415 100.686 326.617 99.4951 330.107C95.6165 332.886 92.0748 336.107 88.9417 339.706C76.6145 353.688 66.9108 372.306 66.881 391.311C66.881 391.758 67.6114 391.892 67.7008 391.415C70.8677 372.817 78.9821 355.414 91.1925 341.033C92.072 340.004 92.9663 339.021 93.8905 338.052C97.2653 337.59 100.665 337.336 104.071 337.292C108.036 337.292 111.971 337.873 115.921 338.186C122.42 338.723 129.605 338.797 135.463 335.533C135.717 335.384 135.553 334.936 135.254 335.041C122.182 339.796 108.424 333.759 95.3811 336.531C100.999 331.195 107.573 326.968 114.759 324.07L115.966 323.593C124.343 324.607 133.212 326.783 141.381 324.07C141.421 324.046 141.452 324.009 141.469 323.966C141.485 323.922 141.487 323.874 141.473 323.829C141.46 323.785 141.431 323.746 141.393 323.719C141.354 323.693 141.308 323.68 141.262 323.682C133.376 325.65 125.804 323.176 118.008 322.773C126.505 319.479 135.135 316.811 143.646 313.561C144.302 313.308 144.332 312.712 143.557 312.846Z" fill="#263238"/>
<path d="M147.254 321.104C143.205 321.635 139.129 321.943 135.046 322.028C134.957 322.028 134.927 322.177 135.046 322.207C139.158 322.96 143.391 322.689 147.373 321.417C147.537 321.357 147.448 321.074 147.254 321.104Z" fill="#263238"/>
<path d="M119.708 313.055C117.448 314.071 115.396 315.496 113.656 317.258C113.447 317.437 113.73 317.825 113.969 317.661C114.997 316.915 116.056 316.17 117.114 315.514C118.147 314.958 119.143 314.336 120.095 313.651C120.304 313.427 120.006 312.936 119.708 313.055Z" fill="#263238"/>
<path d="M53.9275 343.284C54.0765 343.597 53.6293 343.88 53.4505 343.552C53.4205 343.603 53.3795 343.647 53.3306 343.681C53.2816 343.714 53.2258 343.736 53.1673 343.746C45.6737 345.533 38.0772 346.857 30.4209 347.711C24.2647 348.262 17.1546 348.605 11.7735 345.028C4.46964 340.183 -0.330072 327.245 3.62 319.017C8.28555 309.254 22.3567 314.545 29.4221 318.018C40.2915 323.318 48.9617 332.258 53.9275 343.284Z" fill="#04C9D8"/>
<path d="M59.3983 347.8C55.2889 343.837 50.7317 340.365 45.819 337.456C42.2766 331.855 37.5813 327.073 32.0459 323.429C31.7776 323.235 31.5391 323.668 31.7925 323.847C36.1918 327.373 40.0929 331.48 43.3893 336.054C37.9065 333.059 32.2122 330.469 26.3518 328.303C24.2575 324.423 21.077 321.237 17.1996 319.136C17.1251 319.136 17.0357 319.211 17.1102 319.27C20.3113 321.699 23.0997 324.629 25.368 327.946C21.9099 326.649 18.4219 325.441 14.9339 324.279C14.6209 324.174 14.5016 324.651 14.7997 324.771C21.0155 327.2 27.3804 329.764 33.5514 332.73C26.0278 333.906 18.3654 333.88 10.8497 332.656C10.641 332.656 10.5516 332.924 10.7603 332.984C18.6064 335.3 26.9368 335.424 34.8482 333.342C38.7721 335.255 42.5843 337.39 46.2662 339.736C43.1697 339.493 40.0543 339.75 37.0394 340.496C31.7184 341.738 26.2706 342.353 20.8068 342.33C20.7663 342.341 20.7307 342.366 20.7053 342.4C20.68 342.433 20.6663 342.474 20.6663 342.516C20.6663 342.558 20.68 342.599 20.7053 342.633C20.7307 342.667 20.7663 342.691 20.8068 342.703C30.2125 344.327 39.1113 340.049 48.4424 341.212C51.9106 343.568 55.1629 346.226 58.1611 349.157C63.9763 354.976 68.7686 361.733 72.3366 369.146C76.2569 377.135 78.3884 385.617 81.5634 393.875C81.5851 393.952 81.6366 394.017 81.7065 394.056C81.7764 394.095 81.8589 394.105 81.936 394.083C82.0131 394.061 82.0784 394.01 82.1175 393.94C82.1567 393.87 82.1664 393.788 82.1447 393.711C79.3722 377.374 71.2634 359.412 59.3983 347.8Z" fill="#263238"/>
<path d="M31.0023 325.471C30.3885 324.337 29.5698 323.326 28.5875 322.49C27.8003 321.629 26.8603 320.921 25.815 320.403C25.7959 320.397 25.7753 320.398 25.7565 320.405C25.7378 320.412 25.722 320.425 25.7117 320.443C25.7014 320.46 25.6972 320.48 25.6997 320.5C25.7022 320.52 25.7113 320.538 25.7256 320.552C26.4858 321.432 27.5739 322.043 28.3937 322.922C29.2136 323.802 29.8843 324.741 30.7787 325.576C30.7983 325.593 30.8226 325.605 30.8486 325.608C30.8746 325.612 30.9011 325.608 30.9249 325.597C30.9488 325.586 30.9688 325.568 30.9825 325.546C30.9963 325.523 31.0031 325.498 31.0023 325.471Z" fill="#263238"/>
<path d="M15.4702 330.599C14.084 330.241 12.6083 330.271 11.1773 329.988C9.77021 329.643 8.38205 329.225 7.01856 328.736C6.98145 328.729 6.94321 328.736 6.91025 328.754C6.8773 328.772 6.85165 328.801 6.83765 328.836C6.82365 328.871 6.82214 328.91 6.83338 328.946C6.84461 328.982 6.86791 329.013 6.89934 329.034C9.45971 330.622 12.4715 331.324 15.4702 331.031C15.5179 331.019 15.5601 330.991 15.5901 330.952C15.6202 330.913 15.6365 330.865 15.6365 330.815C15.6365 330.766 15.6202 330.718 15.5901 330.679C15.5601 330.64 15.5179 330.612 15.4702 330.599Z" fill="#263238"/>
<path d="M98.1834 373.588L96.9463 387.614L92.7577 435H55.6419L50.41 387.614L48.8597 373.588H98.1834Z" fill="#455A64"/>
<path d="M98.1834 373.588L96.9463 387.614H50.41L48.8597 373.588H98.1834Z" fill="#263238"/>
<path d="M101.865 369.757H45.1931V381.145H101.865V369.757Z" fill="#455A64"/>
</svg>
