<svg width="192" height="507" viewBox="0 0 192 507" fill="none" xmlns="http://www.w3.org/2000/svg">
<path d="M121.798 154.942H127.605C133.413 154.942 139.099 155.668 144.664 157.12C150.23 158.33 155.19 160.628 159.546 164.016C163.901 167.162 167.41 171.517 170.072 177.082C172.733 182.648 174.064 189.786 174.064 198.497V324.444C174.064 333.397 172.612 340.657 169.709 346.222C167.047 351.787 163.417 356.143 158.82 359.288C154.464 362.434 149.262 364.612 143.213 365.822C137.405 367.032 131.477 367.637 125.428 367.637H121.798V154.942ZM64.0873 383.607C64.0873 376.106 65.5391 370.056 68.4428 365.459C71.3465 360.619 74.8551 356.869 78.9686 354.207C83.0822 351.545 87.4377 349.852 92.0352 349.126C96.6327 348.158 100.625 347.674 104.013 347.674C106.917 347.674 109.336 347.916 111.272 348.4V365.096C111.272 370.177 112.482 373.928 114.902 376.348C117.321 378.767 120.346 379.977 123.976 379.977C128.331 379.977 132.203 378.525 135.59 375.622C136.316 377.557 136.679 379.372 136.679 381.066C136.921 382.518 137.042 384.212 137.042 386.148C137.042 389.051 136.316 392.439 134.864 396.31C133.655 399.94 131.598 403.449 128.694 406.836C126.032 409.982 122.403 412.765 117.805 415.184C113.45 417.362 108.126 418.451 101.835 418.451C95.3018 418.451 89.6155 417.362 84.776 415.184C80.1785 413.007 76.3069 410.345 73.1613 407.199C70.2576 403.812 67.9588 400.061 66.265 395.947C64.8132 391.834 64.0873 387.72 64.0873 383.607Z" fill="#04C9D8"/>
<path d="M76.0367 334.72C67.0843 334.618 60.3219 333.452 55.7495 331.222C51.4219 328.752 48.3247 324.482 46.458 318.411C44.5912 312.34 43.7282 303.135 43.8689 290.795L46.1029 94.8093L78.7672 95.1817L76.5332 291.167C76.3925 303.507 77.9814 312.721 81.2999 318.809C84.6211 324.654 91.3628 327.635 101.525 327.751L108.784 327.833L108.701 335.092L76.0367 334.72Z" fill="#04C9D8"/>
<path d="M160.121 395C167.786 395 174.125 401.262 172.768 408.806C171.781 414.294 170.207 419.673 168.063 424.849C164.143 434.313 158.397 442.911 151.154 450.154C143.911 457.397 135.313 463.143 125.849 467.063C116.386 470.982 106.243 473 96 473C85.7569 473 75.6141 470.982 66.1507 467.063C56.6873 463.143 48.0886 457.397 40.8457 450.154C33.6027 442.911 27.8573 434.313 23.9374 424.849C21.7934 419.673 20.2185 414.294 19.2316 408.806C17.8748 401.262 24.214 395 31.8793 395C39.5446 395 45.5728 401.329 47.6635 408.703C48.1945 410.576 48.835 412.421 49.583 414.227C52.1078 420.322 55.8086 425.861 60.4739 430.526C65.1393 435.191 70.6779 438.892 76.7734 441.417C82.869 443.942 89.4022 445.241 96 445.241C102.598 445.241 109.131 443.942 115.227 441.417C121.322 438.892 126.861 435.191 131.526 430.526C136.191 425.861 139.892 420.322 142.417 414.227C143.165 412.421 143.805 410.576 144.336 408.703C146.427 401.329 152.455 395 160.121 395Z" fill="#00CFDC" fill-opacity="0.3"/>
</svg>
