<svg width="110" height="157" viewBox="0 0 110 157" fill="none" xmlns="http://www.w3.org/2000/svg">
<path d="M89.4366 33.7462C85.5446 29.9343 80.5193 25.3325 74.5553 26.9695C68.9691 28.5148 66.8285 34.6276 65.8212 39.7102C64.5391 46.2579 63.5317 52.8744 62.4901 59.4794C61.4484 66.0844 60.4525 72.8153 59.4909 79.489C58.9567 83.2589 58.4225 87.025 57.8883 90.7873L57.1213 96.4422C56.8695 98.2967 56.5604 100.14 56.4574 102.006C56.4574 102.601 57.3617 102.692 57.4876 102.12C58.2088 98.972 58.5064 95.7096 58.9643 92.5159C59.4222 89.3221 59.8915 86.1054 60.3723 82.8888C61.3034 76.5166 62.2535 70.1481 63.2227 63.7835C64.1919 57.4189 65.1839 51.0505 66.1989 44.6782C67.0575 39.2752 67.4581 32.5786 72.243 29.0185C73.5399 28.1276 75.0426 27.5822 76.609 27.434C78.1754 27.2858 79.7537 27.5396 81.1947 28.1714C84.3427 29.3734 86.9183 31.6056 89.3222 33.895C89.4023 33.9293 89.5053 33.8148 89.4366 33.7462Z" fill="#263238"/>
<path d="M84.1137 29.9C84.1137 29.9 76.1694 27.0382 72.243 32.8304C68.3167 38.6227 73.01 53.4353 109.194 61.7001C108.129 50.3901 105.185 39.337 100.483 28.9956C92.7334 12.0424 78.8709 18.4528 84.1137 29.9Z" fill="#DBEFFA"/>
<path d="M107.111 59.2505C106.566 58.2331 105.958 57.2506 105.291 56.3086C104.684 55.3813 104.078 54.4541 103.459 53.5269C102.99 52.8286 102.521 52.1418 102.04 51.4549C102.04 51.2832 102.04 51.1115 102.109 50.9398C102.177 50.7681 102.189 50.3102 102.235 50.0012C102.326 49.3143 102.418 48.639 102.521 47.9636C102.624 47.2882 102.727 46.6242 102.864 45.9489C102.945 45.2245 103.102 44.5108 103.333 43.8197C103.333 43.7167 103.196 43.6595 103.173 43.8197C103.098 44.2093 102.99 44.5922 102.853 44.9644L102.612 45.8802C102.441 46.567 102.269 47.2538 102.109 47.9521C101.948 48.6504 101.845 49.2228 101.742 49.8753C101.689 50.1882 101.643 50.4972 101.605 50.8025C100.952 49.8753 100.3 48.9709 99.6246 48.0781C97.7015 45.5482 95.6639 43.11 93.5691 40.729C93.5691 40.729 93.5691 40.729 93.5691 40.6717C93.7637 36.8598 93.6721 33.1052 94.5192 29.362C94.5192 29.2589 94.3818 29.2017 94.3589 29.3047C93.4024 32.8292 92.9476 36.4708 93.0082 40.1223C92.2527 39.2752 91.4972 38.4395 90.7187 37.6153C88.9559 35.7151 87.1587 33.853 85.3271 32.0291C85.2585 31.9604 85.144 32.0291 85.2127 32.1436C88.2576 35.4175 91.1537 38.8402 93.9697 42.3201C91.7654 42.2859 89.5608 42.3661 87.3647 42.5605C84.9036 42.7437 82.4768 43.0642 80.0386 43.3962C79.9355 43.3962 79.9584 43.5679 80.0386 43.5564C82.4633 43.208 84.9051 42.9902 87.3533 42.9039C89.7228 42.8009 92.0695 42.9039 94.4276 42.9039C95.9501 44.7927 97.4611 46.6929 98.9378 48.6275H96.946C95.8013 48.6275 94.7367 48.7305 93.6492 48.8221C91.4011 49.004 89.1676 49.3367 86.9641 49.818C86.9428 49.818 86.9224 49.8265 86.9074 49.8415C86.8924 49.8565 86.884 49.8769 86.884 49.8981C86.884 49.9194 86.8924 49.9398 86.9074 49.9548C86.9224 49.9698 86.9428 49.9783 86.9641 49.9783C89.1848 49.7264 91.417 49.5204 93.6492 49.4403C94.7138 49.4403 95.7784 49.4403 96.8544 49.4403H98.5143C98.8216 49.4841 99.1349 49.4566 99.43 49.3601C100.403 50.6193 101.376 51.89 102.338 53.1606C103.101 54.1679 103.864 55.1867 104.627 56.217C105.394 57.2701 106.081 58.4148 106.916 59.3993C107.042 59.4107 107.145 59.3306 107.111 59.2505Z" fill="#263238"/>
<path d="M87.5707 38.0732C86.2888 37.8997 84.9945 37.8346 83.7016 37.8786C82.4081 37.8786 81.126 37.8786 79.8324 37.9588C79.718 37.9588 79.718 38.1304 79.8324 38.119C81.1374 38.0274 82.4424 38.0045 83.7588 38.0274C85.0752 38.0503 86.2886 38.1648 87.5593 38.1305C87.6165 38.1305 87.6165 38.0732 87.5707 38.0732Z" fill="#263238"/>
<path d="M98.9263 40.9808C99.0751 39.7445 99.2354 38.5082 99.4987 37.2948C99.4987 37.1804 99.3498 37.1346 99.3384 37.2948C99.1552 38.5082 98.9149 39.7102 98.7317 40.9351C98.6401 41.5417 98.56 42.1484 98.4913 42.7666C98.3789 43.3317 98.329 43.9076 98.3425 44.4836C98.3425 44.511 98.3534 44.5372 98.3727 44.5565C98.392 44.5758 98.4182 44.5867 98.4455 44.5867C98.4728 44.5867 98.4991 44.5758 98.5184 44.5565C98.5377 44.5372 98.5486 44.511 98.5486 44.4836C98.6592 43.9135 98.7242 43.3356 98.7432 42.7551C98.8004 42.1599 98.8576 41.5761 98.9263 40.9808Z" fill="#263238"/>
<path d="M96.5453 27.29C96.2362 28.4347 95.9157 29.7168 95.6982 30.9416C95.5837 31.5598 95.4922 32.1779 95.4006 32.8075C95.2882 33.4111 95.2497 34.0262 95.2861 34.6391C95.2861 34.6391 95.3663 34.6391 95.3777 34.6391C95.5203 34.0678 95.616 33.4859 95.6639 32.8991C95.744 32.2924 95.8356 31.6971 95.9386 31.1019C96.1561 29.8427 96.3851 28.595 96.7056 27.3472C96.7285 27.2442 96.5797 27.187 96.5453 27.29Z" fill="#263238"/>
<path d="M49.4403 100.666C49.2343 98.3769 49.0168 96.0874 48.7764 93.798C48.307 89.2878 47.7461 84.7891 47.1509 80.3018C46.5556 75.8145 46.0062 71.3387 45.2507 66.8743C44.9774 64.8135 44.5137 62.7825 43.8656 60.8073C43.6276 59.9506 43.1934 59.1612 42.5973 58.5015C42.0013 57.8418 41.2597 57.3301 40.4314 57.0068C36.1731 55.5302 33.3113 59.9488 31.5828 63.0738C31.5828 63.1654 31.6743 63.2341 31.7316 63.1539C32.7618 61.6658 35.6007 57.522 38.8288 57.7051C41.0038 57.8425 42.7437 59.3764 43.7854 64.8023C46.3839 78.2985 48.7306 105.692 49.0053 107.477C49.1427 108.427 49.8181 108.393 49.8295 107.374C49.8982 105.142 49.6349 102.898 49.4403 100.666Z" fill="#263238"/>
<path d="M32.7961 61.4025C32.7961 61.4025 36.5164 48.2154 28.2859 54.8319C14.5494 65.7639 14.1144 89.5511 14.1144 89.5511C14.1144 89.5511 38.451 75.4138 41.4731 66.0959C45.9832 52.2105 32.7961 61.4025 32.7961 61.4025Z" fill="#DBEFFA"/>
<path d="M37.3978 67.8473C35.4862 68.2365 33.5516 68.4883 31.6743 68.7745L28.927 69.1523C28.3203 69.2439 27.6907 69.3011 27.0725 69.3698C28.8812 66.8743 30.7127 64.3902 32.4527 61.8375C32.5214 61.746 32.3611 61.6429 32.281 61.7231C30.8392 63.2098 29.4824 64.7768 28.2172 66.4164L27.1412 63.36C26.7291 62.2153 26.2827 61.0134 25.9965 59.8114C25.9965 59.7084 25.8133 59.7542 25.8362 59.8114C26.1682 61.0134 26.4086 62.2382 26.7291 63.4516C27.0496 64.665 27.393 65.741 27.8051 66.8857C26.9123 68.0304 26.0537 69.2324 25.2295 70.4229C24.806 69.2782 24.2909 68.1335 23.9246 66.8857C23.9246 66.7827 23.73 66.8857 23.7643 66.8857C24.1993 68.225 24.4397 69.6101 24.8518 70.9495C24.2909 71.7622 23.7071 72.5864 23.1919 73.4106C22.2189 74.9216 21.2917 76.467 20.3759 77.9895C20.3071 78.0206 20.2499 78.0729 20.2128 78.1388C20.1758 78.2047 20.1607 78.2807 20.1699 78.3558C18.6245 81.0229 17.1707 83.7245 15.7284 86.4375C15.7284 86.5405 15.82 86.6206 15.8658 86.5176C17.3081 83.8275 18.9221 81.2175 20.5934 78.6419C20.8535 78.5578 21.1224 78.5041 21.3947 78.4817L22.2304 78.2985C22.86 78.1612 23.4896 78.0009 24.1077 77.8521C25.344 77.543 26.5688 77.2454 27.8166 77.0393C27.9196 77.0393 27.8166 76.8562 27.8166 76.8791C26.3399 77.1538 24.8632 77.3255 23.3751 77.4972C22.6768 77.5774 21.9785 77.6689 21.2803 77.7834H21.1772C22.0472 76.4555 22.9401 75.1391 23.833 73.8342C24.7259 72.5292 25.6302 71.2814 26.546 70.0222C27.3816 69.8963 28.2172 69.6788 29.0643 69.5186L31.8803 68.9691C33.7691 68.5914 35.6464 68.1678 37.5352 67.8244C37.5467 67.9847 37.5009 67.8244 37.3978 67.8473Z" fill="#263238"/>
<path d="M22.7799 69.1408C22.6769 68.7974 22.5624 68.454 22.4594 68.0991C22.2322 67.3774 22.0449 66.6437 21.8984 65.9013C21.8984 65.7983 21.7153 65.8441 21.7382 65.9013C21.8984 66.6454 22.0702 67.378 22.2419 68.1221C22.3994 68.8662 22.6137 69.5971 22.8829 70.3084C22.9005 70.3369 22.9273 70.3586 22.9588 70.37C22.9903 70.3814 23.0247 70.3818 23.0565 70.3712C23.0882 70.3606 23.1155 70.3397 23.1339 70.3116C23.1522 70.2836 23.1606 70.2502 23.1576 70.2169C23.0432 69.8849 22.8943 69.5186 22.7799 69.1408Z" fill="#263238"/>
<path d="M39.9506 64.8137C38.8059 64.974 37.6612 65.0541 36.5966 65.1457C35.532 65.2373 34.3072 65.409 33.254 65.5693V65.6723C34.3987 65.5922 35.5435 65.512 36.608 65.3632C37.6726 65.2144 38.8288 65.0542 39.9506 64.974C39.9506 64.9626 39.9506 64.7908 39.9506 64.8137Z" fill="#263238"/>
<path d="M67.3436 84.0336C66.92 74.3607 66.3019 64.7108 65.3289 55.0723C64.8481 50.2759 64.3101 45.4796 63.6347 40.7061C63.0289 36.0115 62.0994 31.3643 60.853 26.7978C60.0104 23.2537 58.4523 19.9192 56.2742 16.9991C55.1902 15.5802 53.763 14.4605 52.1268 13.7456C50.4906 13.0307 48.6994 12.7439 46.9218 12.9124C42.6864 13.439 39.2752 16.1062 36.3332 19.0023C33.025 22.2533 29.9915 25.8019 26.9351 29.3048C26.1567 30.1862 25.3898 31.0676 24.6457 31.9605C24.577 32.0406 24.6457 32.1551 24.7716 32.0749C27.7593 28.6408 30.8729 25.2868 34.1354 22.093C37.1345 19.1397 40.2367 15.9116 44.4378 14.6867C46.3754 14.07 48.4493 14.0223 50.4132 14.5494C51.9732 15.0432 53.3777 15.9348 54.4884 17.1364C56.7048 19.7094 58.2746 22.7745 59.0673 26.0766C61.6772 34.9711 62.6044 44.2891 63.566 53.4697C64.5276 62.6503 65.2144 72.1514 65.6837 81.5152C66.1531 90.879 66.5194 100.369 67.4237 109.755C67.5382 110.9 67.687 112.045 67.8358 113.189C67.9388 113.968 69.1408 113.968 69.0835 113.189C68.225 103.471 67.7786 93.7636 67.3436 84.0336Z" fill="#263238"/>
<path d="M35.7495 20.0554C35.7495 20.0554 41.2784 9.83313 34.7535 6.5478C28.2287 3.26247 6.37606 27.6105 0 63.3027C0 63.3027 35.2801 47.7003 47.2653 32.1436C59.2504 16.5869 45.6741 13.1642 35.7495 20.0554Z" fill="#DBEFFA"/>
<path d="M40.9464 28.3661C36.9743 28.3661 33.025 28.0685 29.0528 28.0913L31.3423 25.5386C32.4523 24.4082 33.4885 23.2076 34.4444 21.9442C34.4444 21.8526 34.4444 21.7382 34.3071 21.8068C33.2287 22.7288 32.2258 23.7355 31.3079 24.8174C30.312 25.8706 29.3161 26.9237 28.3431 27.9883C26.8206 29.6252 25.3325 31.2965 23.8558 32.9678C23.8558 32.8075 23.8558 32.6473 23.8558 32.487C23.8558 31.7888 23.8558 31.1019 23.8558 30.4037V26.3743C23.8558 23.6384 23.8558 20.9025 24.0733 18.1781C24.0733 18.0751 23.9131 18.0865 23.9016 18.1781C23.7185 20.914 23.4323 23.627 23.2949 26.3743C23.2949 27.7136 23.2033 29.0643 23.1804 30.4037C23.1804 31.1019 23.1804 31.8002 23.1804 32.487C23.1804 32.8648 23.1804 33.2655 23.1804 33.6318C22.9515 33.895 22.7111 34.1469 22.4707 34.4102C19.3113 38.0275 16.3007 41.7707 13.3702 45.5711C13.3702 45.3651 13.3702 45.1476 13.3702 44.9416L13.2329 43.6824C13.1299 42.778 13.0039 41.8737 12.8666 40.9694C12.7292 40.0651 12.6033 39.2638 12.4659 38.4167C12.3286 37.5696 12.0653 36.4936 11.9966 35.532C11.9966 35.5107 11.9881 35.4904 11.9731 35.4753C11.9581 35.4603 11.9377 35.4519 11.9165 35.4519C11.8952 35.4519 11.8748 35.4603 11.8598 35.4753C11.8448 35.4904 11.8363 35.5107 11.8363 35.532C12.004 36.4938 12.1149 37.4647 12.1683 38.4395L12.4087 41.061C12.4888 41.9309 12.5689 42.8009 12.6605 43.6824C12.6605 44.0945 12.7407 44.518 12.7864 44.9301L12.8551 45.5597C12.8748 45.7381 12.9334 45.9101 13.0268 46.0634L11.5158 48.0323C9.524 50.6766 7.55509 53.3552 5.58618 56.0453C5.58618 56.1254 5.58618 56.2399 5.7121 56.1597C7.56654 53.733 9.47821 51.3519 11.4357 48.9938C12.8895 48.9938 14.3661 48.9938 15.8199 48.9251C17.2737 48.8565 18.8763 48.9251 20.3988 48.9251C20.42 48.9251 20.4404 48.9167 20.4555 48.9017C20.4705 48.8866 20.4789 48.8663 20.4789 48.845C20.4789 48.8237 20.4705 48.8034 20.4555 48.7883C20.4404 48.7733 20.42 48.7649 20.3988 48.7649H15.8199C14.4234 48.7649 12.9925 48.6962 11.6074 48.7649C13.3168 46.6968 15.0339 44.6325 16.7586 42.572C17.3882 41.8279 18.0292 41.0839 18.6588 40.2826C19.2427 40.3645 19.8337 40.3836 20.4217 40.3398H22.5165C23.81 40.3398 25.115 40.3398 26.42 40.2826C29.1101 40.2826 31.8116 40.1566 34.5017 40.1452C34.5229 40.1452 34.5433 40.1367 34.5583 40.1217C34.5734 40.1067 34.5818 40.0863 34.5818 40.0651C34.5818 40.0438 34.5734 40.0234 34.5583 40.0084C34.5433 39.9934 34.5229 39.9849 34.5017 39.9849C31.8002 39.9849 29.1101 39.8361 26.4085 39.7674C25.1036 39.7674 23.7986 39.6873 22.4936 39.6759H20.4102C20.0096 39.6759 19.6089 39.6759 19.2655 39.6759C20.7422 37.9244 22.2189 36.1616 23.707 34.4102C23.7395 34.3852 23.7668 34.3541 23.7872 34.3186C25.2295 32.6091 26.6795 30.9073 28.1371 29.2131L28.7438 28.5263C32.8533 28.6522 36.9628 28.3775 41.0723 28.4576C41.0792 28.441 41.0802 28.4226 41.0753 28.4054C41.0704 28.3881 41.0599 28.373 41.0454 28.3624C41.0308 28.3518 41.0132 28.3465 40.9953 28.3471C40.9773 28.3478 40.9601 28.3545 40.9464 28.3661Z" fill="#263238"/>
<path d="M38.909 35.3717H37.9474C37.8558 35.3717 37.8673 35.5205 37.9474 35.5205H38.909C39.0234 35.5434 39.0234 35.3717 38.909 35.3717Z" fill="#263238"/>
<path d="M36.7798 35.3832C35.5091 35.3832 34.2385 35.3831 32.9679 35.303L31.0562 35.2458C30.4709 35.1713 29.8786 35.1713 29.2933 35.2458C29.2781 35.2458 29.2636 35.2518 29.2529 35.2625C29.2421 35.2733 29.2361 35.2878 29.2361 35.303C29.2361 35.3182 29.2421 35.3327 29.2529 35.3435C29.2636 35.3542 29.2781 35.3602 29.2933 35.3602C29.8763 35.4826 30.4732 35.525 31.0676 35.4862H32.9679H36.7798C36.7901 35.471 36.7956 35.453 36.7956 35.4346C36.7956 35.4163 36.7901 35.3983 36.7798 35.3832Z" fill="#263238"/>
<path d="M25.6874 47.2882C23.1055 46.8669 20.4963 46.6335 17.8805 46.5899V46.6472C20.479 46.899 23.0775 47.0363 25.6417 47.4484C25.6629 47.4545 25.6857 47.4519 25.705 47.4412C25.7243 47.4304 25.7386 47.4125 25.7447 47.3912C25.7508 47.37 25.7481 47.3472 25.7374 47.3278C25.7267 47.3085 25.7087 47.2943 25.6874 47.2882Z" fill="#263238"/>
<path d="M15.076 35.944C15.076 35.7151 15.076 35.4862 14.9958 35.2572C14.9386 34.7535 14.8585 34.2384 14.7783 33.7348C14.6181 32.7617 14.4464 31.8002 14.2632 30.8386C14.2632 30.7471 14.0915 30.7699 14.103 30.8386C14.2289 31.8345 14.3319 32.8304 14.4349 33.8378C14.4349 34.33 14.5151 34.8222 14.5609 35.303C14.5413 35.7998 14.6111 36.2961 14.7669 36.7682C14.8356 36.9171 15.0645 36.8484 15.1103 36.711C15.1554 36.456 15.1436 36.1941 15.076 35.944Z" fill="#263238"/>
<path d="M67.0002 6.92551C65.741 4.5674 64.127 1.46521 60.979 1.65981C58.3805 1.83152 57.2014 4.48727 56.652 6.67367C54.9234 13.4618 54.8319 20.6278 54.477 27.6105C53.7673 42.3201 53.1262 57.0411 53.0347 71.7622C53.0347 75.8374 53.0347 79.924 53.0347 83.9992C53.0347 88.0744 53.0347 92.3556 53.3208 96.5109C53.3346 96.5813 53.3724 96.6447 53.4277 96.6903C53.483 96.7358 53.5525 96.7608 53.6242 96.7608C53.6959 96.7608 53.7654 96.7358 53.8207 96.6903C53.876 96.6447 53.9138 96.5813 53.9275 96.5109C53.9275 92.9509 53.8245 89.3908 53.8131 85.8307C53.8016 82.2706 53.8131 78.8823 53.8818 75.4024C53.9962 68.3738 54.1832 61.3415 54.4427 54.3053C54.706 47.3111 55.015 40.3283 55.3126 33.3341L55.7591 22.86C55.9193 19.4258 56.0567 16.0832 56.4459 12.7178C56.6634 10.829 56.9496 8.95167 57.3388 7.08579C57.5369 5.70842 58.0979 4.40857 58.9643 3.31967C59.5656 2.73293 60.3551 2.37778 61.1931 2.31703C62.031 2.25627 62.8635 2.49383 63.5432 2.98769C64.9949 3.99978 66.1427 5.38907 66.8628 7.00565C66.9086 7.09723 67.046 7.00564 67.0002 6.92551Z" fill="#263238"/>
<path d="M66.1531 5.86097C66.1531 5.86097 63.5546 -3.29675 69.2896 1.28211C78.8251 8.89447 79.1571 25.4699 79.1571 25.4699C79.1571 25.4699 62.2039 15.6254 60.0976 9.12342C56.9611 -0.606662 66.1531 5.86097 66.1531 5.86097Z" fill="#DBEFFA"/>
<path d="M75.597 18.6131L75.1163 17.869C75.1334 17.6098 75.1334 17.3498 75.1163 17.0906C75.1163 16.69 75.1163 16.3008 75.1163 15.9459C75.1163 15.1675 75.1163 14.4005 75.1964 13.6565C75.1964 13.5534 75.0476 13.5534 75.0361 13.6565C75.0361 14.4234 74.9674 15.1789 74.9445 15.9459V17.0906C74.9445 17.228 74.9445 17.3997 74.9445 17.5714C74.2806 16.5412 73.5938 15.5224 72.8841 14.515C72.678 14.2174 72.472 13.9312 72.2545 13.645C72.1743 12.6507 72.1743 11.6516 72.2545 10.6573C72.2545 9.59273 72.2545 8.52815 72.2545 7.47501C72.2545 7.36054 72.0942 7.37199 72.0942 7.47501C72.0942 8.61973 72.0141 9.68431 71.9568 10.7947C71.8882 11.5787 71.8653 12.3661 71.8882 13.1528C70.2512 10.932 68.5112 8.77999 66.7598 6.65082C66.7026 6.58213 66.5767 6.65081 66.6339 6.75384C67.7214 8.12749 68.7631 9.54694 69.7819 10.9778C67.7901 10.5085 65.7639 10.2452 63.7378 9.9476C63.6348 9.9476 63.589 10.0964 63.7378 10.1078C65.8898 10.4284 67.9961 10.9664 70.1138 11.4357C70.9151 12.5804 71.7279 13.7251 72.5177 14.8699C72.8497 15.3392 73.1588 15.82 73.4793 16.2893H73.3877L72.7352 16.1977C72.2659 16.1405 71.7966 16.1062 71.3273 16.0718C70.3428 15.9917 69.3698 15.9459 68.3853 15.8887C68.3641 15.8887 68.3437 15.8971 68.3287 15.9122C68.3136 15.9272 68.3052 15.9475 68.3052 15.9688C68.3052 15.99 68.3136 16.0104 68.3287 16.0254C68.3437 16.0405 68.3641 16.0489 68.3853 16.0489C69.3583 16.0489 70.3085 16.1519 71.27 16.255C71.7737 16.255 72.2774 16.3809 72.7925 16.4381L73.445 16.5183H73.6396L75.2765 18.9222C76.2266 20.3302 77.0852 21.8526 78.104 23.2148C78.1726 23.295 78.2871 23.2148 78.2413 23.1347C77.4448 21.5794 76.5619 20.0699 75.597 18.6131Z" fill="#263238"/>
<path d="M71.373 8.27631C71.373 7.92145 71.373 7.56659 71.373 7.21173C71.3559 6.44743 71.3865 5.6828 71.4646 4.9223C71.4646 4.90105 71.4561 4.88067 71.4411 4.86564C71.4261 4.85061 71.4057 4.84216 71.3844 4.84216C71.3632 4.84216 71.3428 4.85061 71.3278 4.86564C71.3127 4.88067 71.3043 4.90105 71.3043 4.9223C71.3043 5.65492 71.2242 6.39899 71.1898 7.14305C71.1898 7.50936 71.1898 7.88712 71.1898 8.28777C71.1898 8.45947 71.1898 8.63119 71.1898 8.8029C71.161 8.97724 71.161 9.15512 71.1898 9.32946C71.1898 9.34768 71.1971 9.36514 71.2099 9.37802C71.2228 9.3909 71.2403 9.39814 71.2585 9.39814C71.2767 9.39814 71.2942 9.3909 71.3071 9.37802C71.32 9.36514 71.3272 9.34768 71.3272 9.32946C71.3556 9.16662 71.3556 9.00009 71.3272 8.83724L71.373 8.27631Z" fill="#263238"/>
<path d="M69.2781 12.0768C68.6448 11.978 68.0067 11.913 67.3665 11.8822C66.6682 11.8135 65.9699 11.7563 65.2716 11.6647C65.1572 11.6647 65.1343 11.8249 65.2716 11.8249C66.611 11.9165 67.9503 12.1569 69.2896 12.2027C69.3015 12.1963 69.3112 12.1866 69.3176 12.1747C69.324 12.1628 69.3267 12.1494 69.3255 12.1359C69.3243 12.1225 69.3192 12.1097 69.3107 12.0992C69.3023 12.0887 69.291 12.0809 69.2781 12.0768Z" fill="#263238"/>
<path d="M74.6012 12.1226C74.624 12.2398 74.624 12.3603 74.6012 12.4774V12.7293C74.6012 12.9468 74.6012 13.1528 74.6012 13.3703V14.0114C74.5667 14.1967 74.5667 14.3869 74.6012 14.5723C74.6012 14.5723 74.6012 14.5723 74.6698 14.5723C74.6921 14.482 74.6921 14.3878 74.6698 14.2975V14.0114C74.6698 13.7939 74.6698 13.5764 74.6698 13.3703V12.4316C74.6698 12.3401 74.6698 12.1569 74.6698 12.0768C74.6698 11.9967 74.4981 11.9738 74.6012 12.1226Z" fill="#263238"/>
<path d="M67.4237 55.7477C63.8522 53.0805 60.647 49.2343 55.8506 49.0397C51.9014 48.8908 49.1197 51.8671 47.54 55.1868C46.7441 56.951 46.0932 58.7771 45.594 60.647C44.8843 63.1502 44.2127 65.6685 43.5793 68.2022C42.3201 73.1931 41.2517 78.207 40.3741 83.2437C39.8933 86.0597 39.4469 88.8757 39.092 91.7146C38.6425 94.5879 38.3634 97.4853 38.2563 100.392C38.2646 100.497 38.3094 100.597 38.3831 100.674C38.4569 100.75 38.5548 100.799 38.6604 100.811C38.7659 100.823 38.8723 100.798 38.9615 100.74C39.0507 100.683 39.1171 100.596 39.1492 100.495C39.63 98.125 39.8246 95.6753 40.1795 93.2829C40.5343 90.8904 40.8892 88.4636 41.3242 86.0597C42.1331 81.2519 43.0794 76.4747 44.1631 71.7279C45.1819 67.2406 46.1892 62.6847 47.5972 58.3119C48.6275 55.1868 50.2987 51.5237 53.6757 50.4019C58.8269 48.6848 63.4973 53.0462 67.2634 55.8736C67.4237 55.9308 67.4809 55.8164 67.4237 55.7477Z" fill="#263238"/>
<path d="M63.7035 53.1949C63.7035 53.1949 60.4181 43.8083 65.1687 41.9653C72.3003 39.2065 90.9477 60.212 87.296 92.3327C87.296 92.3327 72.8841 84.3998 62.2497 75.4711C51.6153 66.5423 48.8908 54.8662 53.5727 51.867C58.2546 48.8679 63.7035 53.1949 63.7035 53.1949Z" fill="#DBEFFA"/>
<path d="M85.144 85.4873C84.6437 84.3665 84.0621 83.2838 83.404 82.2478C82.7973 81.1031 82.1791 80.0499 81.5495 78.9624C80.3132 76.8447 79.077 74.7156 77.8063 72.6207L77.1882 71.6019C77.1882 71.476 77.1882 71.3501 77.2683 71.2242L77.4744 70.297C77.6346 69.5987 77.7605 68.889 77.8865 68.1907C78.1497 66.817 78.3787 65.4205 78.7564 64.0697C78.7564 64.0484 78.748 64.0281 78.733 64.013C78.7179 63.998 78.6976 63.9896 78.6763 63.9896C78.6551 63.9896 78.6347 63.998 78.6196 64.013C78.6046 64.0281 78.5962 64.0484 78.5962 64.0697C78.2986 65.4434 77.8636 66.8056 77.4515 68.1449C77.2454 68.8088 77.0394 69.4728 76.8562 70.1481C76.8562 70.3771 76.7417 70.606 76.6731 70.835C75.1506 68.3166 73.5938 65.8211 71.911 63.4057C72.0188 63.073 72.0729 62.7253 72.0713 62.3755L72.243 60.9675C72.3689 59.9029 72.4834 58.8498 72.6437 57.7967C72.9166 55.7213 73.2987 53.6618 73.7884 51.6267C73.7884 51.5236 73.6625 51.5007 73.6281 51.6267C73.1244 53.6528 72.5635 55.6789 72.1743 57.728C71.9912 58.7353 71.808 59.7541 71.6707 60.7615C71.602 61.2766 71.5562 61.7803 71.4989 62.2954C71.4989 62.4442 71.4989 62.6045 71.4989 62.7533C70.9838 62.0207 70.4687 61.2995 69.9192 60.5898C68.2823 58.4262 66.5767 56.3085 64.8482 54.2023C64.8482 54.1221 64.6535 54.2022 64.7222 54.2938C67.6688 58.0632 70.372 62.0167 72.8154 66.1302C73.2961 66.8857 73.754 67.6412 74.2234 68.4196L73.754 68.3624C73.1588 68.2937 72.5406 68.2479 71.9454 68.1907L68.3052 67.8816C65.8784 67.687 63.4402 67.5382 61.0248 67.2749C60.9218 67.2749 60.8874 67.4237 61.0248 67.4352C63.4859 67.7213 65.9242 68.1105 68.3624 68.4654C69.5071 68.6371 70.7663 68.7973 71.9797 68.9462C72.8918 69.1304 73.8195 69.2262 74.7499 69.2323C75.7115 70.7586 76.6654 72.3078 77.6117 73.8799C77.3984 73.8626 77.184 73.8626 76.9707 73.8799H73.5365C71.9683 73.8799 70.4115 73.8799 68.8432 73.8799C68.7402 73.8799 68.7631 74.0402 68.8432 74.0402C70.4229 74.0402 72.0026 74.1432 73.5823 74.2233C74.3378 74.2233 75.0819 74.3034 75.8718 74.3607L77.0165 74.4408C77.341 74.5097 77.6764 74.5097 78.0009 74.4408C78.8137 75.7572 79.6379 77.0736 80.4392 78.3901C81.2405 79.7065 81.9387 80.8169 82.7286 82.0188C83.453 83.3026 84.2719 84.5309 85.1783 85.6933C85.1918 85.6911 85.2048 85.6862 85.2164 85.679C85.228 85.6717 85.2381 85.6622 85.2461 85.651C85.2541 85.6399 85.2598 85.6273 85.2629 85.6139C85.266 85.6005 85.2664 85.5867 85.2641 85.5732C85.2619 85.5596 85.257 85.5467 85.2497 85.5351C85.2425 85.5234 85.233 85.5133 85.2218 85.5053C85.2107 85.4974 85.198 85.4917 85.1847 85.4886C85.1713 85.4855 85.1575 85.4851 85.144 85.4873Z" fill="#263238"/>
<path d="M78.2756 59.4794C78.1302 60.5151 77.9161 61.54 77.6345 62.5472C77.3598 63.5889 77.0622 64.6192 76.7188 65.638C76.7143 65.6507 76.7123 65.6643 76.713 65.6778C76.7138 65.6913 76.7171 65.7046 76.723 65.7168C76.7288 65.729 76.737 65.74 76.7471 65.749C76.7572 65.7581 76.769 65.7651 76.7817 65.7696C76.7945 65.7741 76.808 65.776 76.8216 65.7753C76.8351 65.7746 76.8484 65.7712 76.8606 65.7654C76.8728 65.7595 76.8838 65.7513 76.8928 65.7413C76.9019 65.7312 76.9089 65.7194 76.9134 65.7066C77.2339 64.6878 77.5201 63.669 77.7719 62.6273C78.0237 61.5857 78.184 60.544 78.4358 59.5137C78.4587 59.4107 78.287 59.3764 78.2756 59.4794Z" fill="#263238"/>
<path d="M67.6871 65.7639C67.4688 65.5809 67.1935 65.4797 66.9087 65.4777L65.5465 65.2946L63.0166 64.9855C61.2538 64.7794 59.5024 64.6078 57.7395 64.3903C57.6365 64.3903 57.6136 64.5391 57.7395 64.5505C59.3993 64.7451 61.0363 64.997 62.6961 65.2145L65.1229 65.535L66.2676 65.6609C66.72 65.6615 67.169 65.7389 67.5955 65.8898C67.6871 65.9356 67.7443 65.8211 67.6871 65.7639Z" fill="#263238"/>
<path d="M78.2527 79.924C77.4171 79.8439 76.5814 79.821 75.7572 79.7981H74.498H73.8913C73.6324 79.8212 73.3719 79.8212 73.1129 79.7981C72.987 79.7981 72.9756 79.9813 73.1129 79.9584C73.3566 79.9355 73.6019 79.9355 73.8456 79.9584H74.498L75.7572 80.0385C76.5929 80.0385 77.4285 80.1415 78.2527 80.1415C78.3443 80.0957 78.3557 79.924 78.2527 79.924Z" fill="#263238"/>
<path d="M83.3239 76.3181C83.4307 75.845 83.5223 75.3757 83.5986 74.9102L84.1137 72.1171C84.1137 72.0958 84.1053 72.0754 84.0902 72.0604C84.0752 72.0454 84.0548 72.0369 84.0336 72.0369C84.0123 72.0369 83.992 72.0454 83.9769 72.0604C83.9619 72.0754 83.9535 72.0958 83.9535 72.1171L83.3353 74.83C83.2323 75.2765 83.1407 75.7343 83.0377 76.1808C83.0377 76.3983 82.9576 76.6044 82.9118 76.8104C82.8438 77.0247 82.8205 77.2506 82.8431 77.4743C82.8431 77.5545 82.969 77.6117 83.0148 77.4743C83.1892 77.1117 83.2941 76.7195 83.3239 76.3181Z" fill="#263238"/>
<path d="M81.4122 104.055L80.6109 117.356L78.2413 156.62H29.6939L27.3244 117.356L26.5231 104.055H81.4122Z" fill="#455A64"/>
<path d="M81.4122 104.055L80.6109 117.356H27.3244L26.5231 104.055H81.4122Z" fill="#263238"/>
<path d="M85.1325 94.645H22.8142V107.958H85.1325V94.645Z" fill="#455A64"/>
</svg>
