<svg width="136" height="188" viewBox="0 0 136 188" fill="none" xmlns="http://www.w3.org/2000/svg">
<path d="M69.8668 34.2393C68.7548 41.9867 69.1545 49.8761 71.0437 57.4714C71.9407 60.985 73.1305 64.4172 74.6005 67.7322C76.4517 71.9898 78.3822 76.1417 77.9194 80.7961C77.4698 81.087 79.0169 81.0473 79.0566 80.5845C91.4858 73.5104 107.432 72.2146 116.992 60.6449C121.528 55.1707 123.815 48.2288 124.926 41.2737C126.103 33.7104 126.42 25.3405 124.476 17.883C122.823 11.5758 119.187 5.50658 113.224 2.41249C107.102 -0.774159 99.0888 -0.50971 92.6626 1.50013C78.7392 5.8107 71.8105 20.7919 69.8668 34.2393Z" fill="#04C9D8"/>
<path d="M63.4934 126.295C65.1859 120.636 66.8784 114.99 68.6237 109.344C72.0352 98.3027 75.5788 87.2883 79.506 76.4193C81.8419 69.905 84.319 63.4524 86.9371 57.0614C86.6529 53.0319 86.1586 49.02 85.4561 45.0421C84.4115 40.229 82.9042 35.5747 81.4893 30.8542C81.3968 30.5633 81.8728 30.4179 81.9918 30.6956C84.7818 37.1879 88.418 45.5049 88.5105 53.174C91.5517 45.9412 94.7913 38.801 98.282 31.793C98.6829 25.8526 98.5013 19.8872 97.7399 13.9822C97.7293 13.9534 97.725 13.9226 97.7274 13.892C97.7299 13.8614 97.7389 13.8318 97.754 13.805C97.769 13.7783 97.7897 13.7551 97.8146 13.7371C97.8395 13.7192 97.868 13.7069 97.8981 13.7011C97.9283 13.6952 97.9593 13.696 97.9891 13.7034C98.0189 13.7107 98.0467 13.7245 98.0707 13.7437C98.0946 13.7629 98.1141 13.7871 98.1278 13.8145C98.1414 13.842 98.149 13.8722 98.1498 13.9028C99.218 19.0665 99.6267 24.3448 99.3663 29.6113C102.011 24.3223 104.854 19.1258 107.855 13.9954C108.12 13.5326 108.768 13.9954 108.53 14.4714C103.849 23.4628 99.525 32.6393 95.4524 41.948C101.175 36.9834 107.789 33.1515 114.943 30.6559C115.247 30.5501 115.485 30.9997 115.167 31.1319C107.363 34.4829 100.225 39.2078 94.0905 45.0817C91.1639 51.9046 88.3783 58.7716 85.7338 65.6826C93.5219 58.0663 104.153 53.055 114.453 50.3576C114.81 50.265 114.89 50.8071 114.559 50.8997C102.659 54.4963 93.4029 61.253 84.3322 69.4114C83.2744 72.2145 82.243 75.0177 81.2381 77.8209C77.3947 88.4783 73.7365 99.1931 70.2633 109.965C68.5973 115.14 66.9533 120.314 65.3313 125.488C63.5992 131.055 62.2372 136.952 59.9761 142.334C59.7514 142.836 58.839 142.731 58.9448 142.109C60.1955 136.765 61.7136 131.487 63.4934 126.295Z" fill="#263238"/>
<path d="M84.1074 23.357C86.3155 26.7474 87.8341 30.5396 88.5766 34.5169C88.5766 34.6095 88.4444 34.6756 88.4047 34.5169C87.0133 30.7714 85.3927 27.115 83.5521 23.5686C83.3669 23.2645 83.8958 23.0265 84.1074 23.357Z" fill="#263238"/>
<path d="M106.281 49.247C109.743 47.3389 113.518 46.0671 117.428 45.4918C117.534 45.4918 117.6 45.624 117.494 45.6769C115.696 46.4173 113.818 46.9991 111.994 47.6338C110.169 48.2685 108.397 49.1809 106.559 49.8288C106.482 49.8656 106.393 49.8702 106.313 49.8417C106.232 49.8132 106.166 49.7538 106.129 49.6767C106.093 49.5995 106.088 49.5109 106.116 49.4303C106.145 49.3497 106.204 49.2838 106.281 49.247Z" fill="#263238"/>
<path d="M112.523 18.0944C113.65 17.2472 114.854 16.5079 116.119 15.8862C116.162 15.8599 116.212 15.8514 116.261 15.8626C116.309 15.8737 116.351 15.9037 116.377 15.9457C116.404 15.9878 116.412 16.0386 116.401 16.087C116.39 16.1353 116.36 16.1773 116.318 16.2036C115.215 17.0747 114.033 17.8406 112.787 18.4911C112.549 18.6233 112.298 18.2531 112.523 18.0944Z" fill="#263238"/>
<path d="M27.9642 76.4458C36.9159 79.0904 45.9205 81.563 54.8722 84.1943C55.6391 84.4191 70.7393 55.4219 65.3048 40.4804C60.2538 26.6628 48.684 16.3094 34.8928 11.6154C28.5063 9.4469 20.6521 7.64863 13.8953 9.10312C7.89227 10.4254 3.64781 15.3442 1.70409 21.0035C-0.940429 28.6726 -0.0677375 37.8226 1.37353 45.6636C2.52169 53.0198 5.55564 59.9532 10.1798 65.7884C14.9531 71.4345 20.9959 74.3831 27.9642 76.4458Z" fill="#04C9D8"/>
<path d="M14.9531 48.8898C20.6125 51.6495 26.4792 53.9617 32.4995 55.8053C36.5184 56.878 40.4379 58.2937 44.2148 60.0365C40.4331 51.6137 36.2812 43.3628 31.8913 35.178C26.0998 33.5119 19.991 30.8939 15.6672 26.8081C15.6262 26.7634 15.6027 26.7053 15.6012 26.6447C15.5996 26.584 15.6201 26.5249 15.6587 26.4781C15.6974 26.4314 15.7518 26.4002 15.8116 26.3903C15.8715 26.3805 15.9329 26.3927 15.9845 26.4246C20.7579 29.7964 26.0204 31.8195 31.2963 34.107C30.1062 31.9032 28.8986 29.6994 27.6733 27.4957C27.3295 26.8874 28.1757 26.2792 28.5856 26.8742C33.3238 33.7198 37.604 40.8712 41.3983 48.2816C42.3551 41.8053 42.6651 35.2499 42.3239 28.7122C42.3326 28.6857 42.3495 28.6627 42.372 28.6463C42.3946 28.63 42.4217 28.6212 42.4496 28.6212C42.4774 28.6212 42.5045 28.63 42.5271 28.6463C42.5496 28.6627 42.5665 28.6857 42.5752 28.7122C43.6952 35.8456 43.6237 43.1153 42.3636 50.2253C45.4974 56.4796 48.3534 62.9058 50.9318 69.3981C51.95 65.4974 53.2722 61.6497 54.1582 57.7226C55.53 52.1027 55.9766 46.2968 55.4804 40.5332C55.4804 40.4981 55.4944 40.4644 55.5192 40.4396C55.544 40.4148 55.5776 40.4009 55.6126 40.4009C55.6477 40.4009 55.6813 40.4148 55.7061 40.4396C55.7309 40.4644 55.7449 40.4981 55.7449 40.5332C57.2856 51.2047 55.9575 62.0939 51.8971 72.0823C53.3913 76.0491 54.8193 79.9233 56.1284 83.8636C62.8827 103.947 66.8858 124.852 68.0287 146.01C68.0122 146.098 67.9654 146.177 67.8966 146.234C67.8278 146.291 67.7412 146.322 67.6518 146.322C67.5624 146.322 67.4758 146.291 67.407 146.234C67.3382 146.177 67.2915 146.098 67.275 146.01C64.9354 125.148 60.4648 104.581 53.9334 84.6305C51.2889 76.8292 48.3534 69.2526 45.0742 61.8215C39.7852 60.248 34.4961 58.1324 29.3261 56.3342C24.1561 54.5359 19.0654 52.5525 14.7812 49.2204C14.7595 49.2091 14.7403 49.1937 14.7245 49.1749C14.7088 49.1562 14.6969 49.1346 14.6896 49.1112C14.6822 49.0879 14.6795 49.0633 14.6816 49.039C14.6837 49.0146 14.6906 48.9909 14.7019 48.9692C14.7132 48.9475 14.7286 48.9282 14.7474 48.9125C14.7661 48.8967 14.7878 48.8848 14.8111 48.8775C14.8344 48.8701 14.859 48.8674 14.8833 48.8695C14.9077 48.8717 14.9314 48.8785 14.9531 48.8898Z" fill="#263238"/>
<path d="M6.64931 40.4671C12.1235 42.4108 17.3067 45.1346 22.7809 47.0784C23.0321 47.1709 22.8866 47.5676 22.6222 47.5147C16.8439 46.3247 11.0921 44.5396 6.43774 40.7447C6.25262 40.6389 6.45097 40.3481 6.64931 40.4671Z" fill="#263238"/>
<path d="M51.3418 28.6593C51.3418 28.3684 51.6988 28.1966 51.7914 28.5007C53.2987 33.5385 54.3301 38.8936 52.8756 44.0504C52.8095 44.262 52.4922 44.262 52.479 44.0504C52.2145 38.8275 52.5054 33.7368 51.3418 28.6593Z" fill="#263238"/>
<path d="M28.7313 16.9971C30.4736 19.505 31.3084 22.5321 31.0981 25.5786C31.0981 25.7637 30.7808 25.8827 30.7279 25.6579C30.0668 22.7622 28.9561 20.1309 28.0834 17.3277C28.0593 17.245 28.0648 17.1564 28.099 17.0773C28.1332 16.9982 28.1938 16.9335 28.2706 16.8944C28.3473 16.8552 28.4353 16.8441 28.5194 16.8628C28.6035 16.8816 28.6785 16.9291 28.7313 16.9971Z" fill="#263238"/>
<path d="M134.446 89.2717C131.801 97.6019 125.587 109.106 115.709 109.211C109.31 109.277 102.857 108.511 96.4439 108.418C89.5682 108.312 82.6792 108.339 75.8299 108.735C75.2613 108.735 76.6497 88.161 93.1647 78.125C97.7926 75.3218 103.452 74.4227 108.701 73.2856C114.712 71.8669 120.88 71.227 127.054 71.3815C130.849 71.527 134.009 72.3335 135.358 76.221C136.707 80.1084 135.702 85.3049 134.446 89.2717Z" fill="#04C9D8"/>
<path d="M127.345 78.8125C123.378 79.8439 119.279 81.0339 115.247 82.3165C116.298 81.1729 117.41 80.087 118.579 79.0638C120.311 77.6225 122.215 76.4854 124.066 75.216C124.225 75.1102 124.132 74.8193 123.934 74.8987C120.026 76.5217 116.651 79.2057 114.189 82.6471C109.164 84.2603 104.192 86.0585 99.4058 88.0155C96.1011 89.3683 92.9349 91.0378 89.9517 93.0004C90.911 90.9134 92.0572 88.9174 93.3763 87.037C95.5581 84.1941 98.5332 82.6207 101.402 80.5976C101.46 80.5625 101.502 80.5059 101.518 80.4402C101.534 80.3745 101.523 80.305 101.488 80.2472C101.453 80.1893 101.397 80.1478 101.331 80.1317C101.265 80.1155 101.196 80.1262 101.138 80.1612C98.1377 81.464 95.4424 83.3789 93.2247 85.7833C91.007 88.1877 89.3157 91.0287 88.2592 94.1243C84.8185 96.5896 81.6768 99.4473 78.8976 102.64C67.9625 115.042 59.3546 131.558 59.3281 148.416C59.3281 148.813 59.976 148.932 60.0554 148.509C62.8646 132.011 70.0627 116.574 80.8942 103.816C81.6743 102.904 82.4677 102.031 83.2875 101.172C86.2812 100.762 89.2972 100.537 92.3185 100.498C95.8358 100.498 99.3265 101.013 102.83 101.291C108.596 101.767 114.969 101.833 120.165 98.9374C120.39 98.8051 120.245 98.4085 119.98 98.501C108.384 102.719 96.1795 97.3639 84.6097 99.8233C89.5931 95.09 95.4249 91.3396 101.799 88.7692L102.87 88.346C110.301 89.2452 118.169 91.1757 125.415 88.7692C125.45 88.7479 125.478 88.7153 125.493 88.6766C125.508 88.6379 125.509 88.5954 125.497 88.5557C125.485 88.5161 125.459 88.4817 125.425 88.4581C125.391 88.4345 125.35 88.4229 125.309 88.4254C118.314 90.1707 111.597 87.9758 104.682 87.6188C112.219 84.6966 119.874 82.3298 127.425 79.4472C128.006 79.2225 128.033 78.6935 127.345 78.8125Z" fill="#263238"/>
<path d="M130.625 86.1379C127.033 86.6088 123.417 86.8825 119.795 86.9577C119.716 86.9577 119.69 87.0899 119.795 87.1164C123.443 87.7845 127.198 87.5439 130.73 86.4156C130.876 86.3627 130.797 86.1115 130.625 86.1379Z" fill="#263238"/>
<path d="M106.189 78.9979C104.185 79.899 102.365 81.1632 100.821 82.7267C100.635 82.8853 100.887 83.2292 101.098 83.0837C102.011 82.4226 102.949 81.7614 103.888 81.1796C104.805 80.6864 105.688 80.1343 106.533 79.5268C106.718 79.3285 106.453 78.8921 106.189 78.9979Z" fill="#263238"/>
<path d="M47.8376 105.813C47.9698 106.091 47.5731 106.342 47.4144 106.051C47.3878 106.097 47.3515 106.135 47.3081 106.165C47.2646 106.195 47.2151 106.215 47.1632 106.223C40.5159 107.809 33.7773 108.983 26.9855 109.74C21.5246 110.229 15.2174 110.534 10.444 107.36C3.96495 103.063 -0.29273 91.5856 3.21126 84.2867C7.34994 75.6259 19.8321 80.3199 26.0996 83.4008C35.7415 88.1025 43.4326 96.0321 47.8376 105.813Z" fill="#04C9D8"/>
<path d="M52.6904 109.82C49.0451 106.303 45.0026 103.224 40.6446 100.643C37.5023 95.6748 33.3372 91.4331 28.4269 88.2007C28.1889 88.0288 27.9774 88.4123 28.2021 88.5709C32.1046 91.6994 35.5652 95.3424 38.4893 99.4002C33.6257 96.7433 28.5744 94.4453 23.3759 92.5245C21.5181 89.082 18.6967 86.256 15.2572 84.3926C15.1911 84.3926 15.1118 84.4587 15.1779 84.5116C18.0176 86.6662 20.4911 89.2648 22.5032 92.2071C19.4356 91.0568 16.3415 89.9858 13.2474 88.9544C12.9697 88.8618 12.8639 89.2849 13.1284 89.3907C18.6422 91.546 24.2883 93.8203 29.7624 96.4516C23.0885 97.494 16.2914 97.4717 9.62439 96.3855C9.43928 96.3855 9.35994 96.6235 9.54506 96.6764C16.5051 98.7308 23.8948 98.8406 30.9128 96.9937C34.3936 98.6914 37.7752 100.585 41.0413 102.666C38.2945 102.451 35.531 102.678 32.8565 103.341C28.1364 104.442 23.3038 104.987 18.4571 104.967C18.4212 104.977 18.3896 104.999 18.3671 105.029C18.3446 105.059 18.3324 105.095 18.3324 105.132C18.3324 105.17 18.3446 105.206 18.3671 105.236C18.3896 105.266 18.4212 105.287 18.4571 105.298C26.8005 106.739 34.6945 102.944 42.9718 103.975C46.0483 106.065 48.9333 108.423 51.5929 111.023C56.7514 116.185 61.0026 122.179 64.1676 128.754C67.6452 135.842 69.536 143.365 72.3524 150.691C72.3717 150.759 72.4174 150.817 72.4794 150.852C72.5414 150.886 72.6146 150.895 72.683 150.876C72.7514 150.857 72.8093 150.811 72.844 150.749C72.8787 150.687 72.8874 150.614 72.8681 150.545C70.4087 136.053 63.2156 120.12 52.6904 109.82Z" fill="#263238"/>
<path d="M27.5013 90.0122C26.9568 89.0058 26.2306 88.1092 25.3592 87.3676C24.6609 86.6039 23.827 85.9762 22.8998 85.5165C22.8829 85.5112 22.8646 85.5117 22.8479 85.5181C22.8313 85.5244 22.8173 85.5361 22.8082 85.5514C22.799 85.5666 22.7953 85.5845 22.7975 85.6022C22.7997 85.6198 22.8078 85.6362 22.8205 85.6487C23.4949 86.4289 24.4601 86.971 25.1873 87.7511C25.9146 88.5312 26.5096 89.3643 27.3029 90.1047C27.3203 90.1203 27.3419 90.1304 27.3649 90.1338C27.388 90.1372 27.4116 90.1338 27.4327 90.1239C27.4538 90.1141 27.4716 90.0982 27.4838 90.0783C27.496 90.0585 27.502 90.0355 27.5013 90.0122Z" fill="#263238"/>
<path d="M13.7233 94.561C12.4936 94.2436 11.1845 94.2701 9.91518 94.0188C8.66696 93.7131 7.43557 93.3424 6.22606 92.9081C6.19313 92.9023 6.15921 92.9079 6.12998 92.9242C6.10075 92.9404 6.078 92.9663 6.06558 92.9973C6.05316 93.0284 6.05182 93.0628 6.06178 93.0947C6.07175 93.1266 6.09242 93.1541 6.12029 93.1726C8.39153 94.5815 11.0632 95.2041 13.7233 94.9444C13.7656 94.9332 13.803 94.9083 13.8297 94.8736C13.8563 94.839 13.8708 94.7964 13.8708 94.7527C13.8708 94.7089 13.8563 94.6664 13.8297 94.6317C13.803 94.5971 13.7656 94.5722 13.7233 94.561Z" fill="#263238"/>
<path d="M87.0956 132.695L85.9982 145.137L82.2826 187.172H49.3583L44.7172 145.137L43.342 132.695H87.0956Z" fill="#455A64"/>
<path d="M87.0956 132.695L85.9982 145.137H44.7172L43.342 132.695H87.0956Z" fill="#263238"/>
<path d="M90.3619 129.297H40.0896V139.399H90.3619V129.297Z" fill="#455A64"/>
</svg>
