<svg width="459" height="233" viewBox="0 0 459 233" fill="none" xmlns="http://www.w3.org/2000/svg">
<path d="M420.733 0C443.593 0 462.498 18.6756 458.451 41.1746C455.507 57.5418 450.813 73.584 444.419 89.0207C432.728 117.246 415.591 142.888 393.99 164.49C372.389 186.091 346.746 203.228 318.521 214.918C290.299 226.606 260.049 232.625 229.5 232.625C198.952 232.625 168.702 226.606 140.479 214.918C112.256 203.228 86.611 186.091 65.01 164.49C43.4087 142.888 26.2738 117.246 14.5833 89.0207C8.18906 73.584 3.49212 57.5418 0.548825 41.1746C-3.49765 18.6756 15.4082 0 38.2689 0C61.1297 0 79.108 18.8754 85.3432 40.8674C86.9269 46.4534 88.8371 51.9558 91.0679 57.342C98.5978 75.5195 109.635 92.0389 123.549 105.952C137.463 119.864 153.981 130.902 172.16 138.433C190.339 145.963 209.823 149.837 229.5 149.837C249.178 149.837 268.662 145.963 286.842 138.433C305.02 130.902 321.539 119.864 335.452 105.952C349.365 92.0389 360.403 75.5195 367.933 57.342C370.164 51.9558 372.073 46.4534 373.656 40.8674C379.892 18.8754 397.87 0 420.733 0Z" fill="#00CFDC" fill-opacity="0.3"/>
</svg>
